<svg version="1.1" xmlns="http://www.w3.org/2000/svg" viewBox="0 0 1751 4625.875" width="1751" height="4625.875">
  <!-- svg-source:excalidraw -->
  
  <defs>
    <style>
      @font-face {
        font-family: "Virgil";
        src: url("https://excalidraw.com/Virgil.woff2");
      }
      @font-face {
        font-family: "Cascadia";
        src: url("https://excalidraw.com/Cascadia.woff2");
      }
    </style>
  </defs>
  <rect x="0" y="0" width="1751" height="4625.875" fill="#ffffff"></rect><g stroke-linecap="round" transform="translate(394 45) rotate(0 486 286.5)"><path d="M-0.56 -0.11 C201.8 1.39, 401.8 2.55, 972.57 0.31 M0.01 -0.16 C326.65 -2.95, 652.51 -3.04, 972.33 0.07 M971.74 0.55 C973.07 162.09, 972.5 323.43, 972.01 573.08 M971.67 -0.04 C971.49 218.12, 971.35 435.48, 972.05 573.22 M972.21 573.08 C612.63 572.21, 252.55 572.14, -0.48 572.45 M972.36 572.84 C601.79 572.17, 231.69 572.47, -0.25 573.34 M0.16 573.61 C2.01 357.56, 1.98 142.13, 0.56 0.56 M0.24 572.9 C-0.82 419.9, -0.9 266.59, 0.11 0.37" stroke="#000000" stroke-width="2" fill="none"></path></g><g transform="translate(811 10) rotate(0 74 12.5)"><text x="0" y="18" font-family="Virgil, Segoe UI Emoji" font-size="20px" fill="#000000" text-anchor="start" style="white-space: pre;" direction="ltr">P치gina principal</text></g><g transform="translate(489 84) rotate(0 75.13333333333333 49)"><text x="75.13333333333333" y="68.99999999999997" font-family="Virgil, Segoe UI Emoji" font-size="78.39999999999998px" fill="#000000" text-anchor="middle" style="white-space: pre;" direction="ltr">Cine</text></g><g stroke-linecap="round" transform="translate(1224 73) rotate(0 49.5 20.5)"><path d="M10.25 0 M10.25 0 C33.27 0.48, 52.96 2.46, 88.75 0 M10.25 0 C31.62 -0.51, 52.15 0, 88.75 0 M88.75 0 C94.33 1.97, 99.81 4.46, 99 10.25 M88.75 0 C96.26 -2.21, 99.11 2.98, 99 10.25 M99 10.25 C100.54 15.22, 100.81 20.15, 99 30.75 M99 10.25 C99.2 16.95, 99.3 22.37, 99 30.75 M99 30.75 C98.09 38.33, 93.65 40.53, 88.75 41 M99 30.75 C99.82 36.86, 97.81 38.87, 88.75 41 M88.75 41 C57.47 39.7, 29.38 40.65, 10.25 41 M88.75 41 C67.27 40.17, 45.46 40.39, 10.25 41 M10.25 41 C4.08 42.24, 1.08 37.43, 0 30.75 M10.25 41 C2.84 40.59, -0.66 38.86, 0 30.75 M0 30.75 C-0.49 25.89, 1.63 21.87, 0 10.25 M0 30.75 C-0.39 23.24, 0.36 15.14, 0 10.25 M0 10.25 C-1.16 2.92, 1.68 1.48, 10.25 0 M0 10.25 C1.11 3.68, 4.27 0.2, 10.25 0" stroke="#000000" stroke-width="2" fill="none"></path></g><g transform="translate(1229 81) rotate(0 44.5 12.5)"><text x="44.5" y="18" font-family="Virgil, Segoe UI Emoji" font-size="20px" fill="#000000" text-anchor="middle" style="white-space: pre;" direction="ltr">Ingresar</text></g><g stroke-linecap="round" transform="translate(468 222) rotate(0 78 124.5)"><path d="M39 0 M39 0 C64.45 1.06, 87.95 -2.17, 117 0 M39 0 C64.98 -0.34, 89.44 -0.25, 117 0 M117 0 C142.91 0.13, 157.97 12.77, 156 39 M117 0 C143.86 -0.24, 157.14 11.42, 156 39 M156 39 C156.02 85.62, 155.3 131.56, 156 210 M156 39 C155.91 80.56, 154.84 122.14, 156 210 M156 210 C155.69 237.9, 144.32 250.21, 117 249 M156 210 C154.19 236.39, 140.85 248.53, 117 249 M117 249 C95.08 246.77, 73.83 247.7, 39 249 M117 249 C101.05 249.59, 84.61 249.96, 39 249 M39 249 C15 250.12, 1.96 235.79, 0 210 M39 249 C13.98 250.24, 1.74 234.73, 0 210 M0 210 C-1.84 155.88, -0.18 100.53, 0 39 M0 210 C2.44 170.03, 2.28 130.84, 0 39 M0 39 C0.7 13.86, 12.73 0.62, 39 0 M0 39 C-1.94 12.71, 11 -0.66, 39 0" stroke="#000000" stroke-width="2" fill="none"></path></g><g stroke-linecap="round" transform="translate(665 221.5) rotate(0 78 124.5)"><path d="M39 0 M39 0 C60.03 -1.14, 79.83 -0.46, 117 0 M39 0 C68.1 -0.17, 99.58 -0.63, 117 0 M117 0 C144.59 1.64, 157.22 13.43, 156 39 M117 0 C143.7 2.14, 158.16 10.79, 156 39 M156 39 C153.41 81.59, 154.98 122.48, 156 210 M156 39 C154.09 84.57, 155.85 129.43, 156 210 M156 210 C155.27 235.45, 141.66 248.66, 117 249 M156 210 C153.73 234.66, 141.99 251.06, 117 249 M117 249 C95.28 250.22, 74.56 250.38, 39 249 M117 249 C100.19 248.92, 85.42 249.3, 39 249 M39 249 C13.16 250.84, -1.11 236.45, 0 210 M39 249 C13.31 249, -1.16 237.88, 0 210 M0 210 C-0.22 166.67, -0.1 120.06, 0 39 M0 210 C1.99 144.04, 1.28 76.35, 0 39 M0 39 C-0.6 14.99, 11.28 -1.22, 39 0 M0 39 C1.58 11.48, 12.6 0.99, 39 0" stroke="#000000" stroke-width="2" fill="none"></path></g><g stroke-linecap="round" transform="translate(859 221.5) rotate(0 78 124.5)"><path d="M39 0 M39 0 C65.38 -0.74, 91.89 -0.53, 117 0 M39 0 C55.6 -0.02, 71.22 0.93, 117 0 M117 0 C141.83 0.76, 154.66 13.92, 156 39 M117 0 C140.83 -0.72, 155.17 11.27, 156 39 M156 39 C157.07 95.56, 155.8 148.9, 156 210 M156 39 C156.82 92.22, 155.93 145.49, 156 210 M156 210 C155.65 237.69, 142.77 249.08, 117 249 M156 210 C158.1 233.89, 144.77 249.97, 117 249 M117 249 C85.62 251.13, 53.72 247.92, 39 249 M117 249 C88.65 249.61, 59.9 248.13, 39 249 M39 249 C14.98 250.53, 0.03 234.05, 0 210 M39 249 C11.8 249.45, -0.21 235.27, 0 210 M0 210 C-0.28 157.42, -0.4 105.8, 0 39 M0 210 C0.25 169.66, -0.76 129.97, 0 39 M0 39 C-0.8 12.94, 13.61 -0.87, 39 0 M0 39 C1.2 14.74, 13.66 1.22, 39 0" stroke="#000000" stroke-width="2" fill="none"></path></g><g stroke-linecap="round" transform="translate(1071 220.5) rotate(0 78 124.5)"><path d="M39 0 M39 0 C59.66 0.82, 84.84 1.18, 117 0 M39 0 C61.14 -0.63, 80.67 0.92, 117 0 M117 0 C141.68 -0.35, 156.86 14.49, 156 39 M117 0 C144.04 -1.68, 158.27 14.75, 156 39 M156 39 C154.72 90.33, 153.7 142.04, 156 210 M156 39 C154.05 90.85, 153.92 142.36, 156 210 M156 210 C156.25 237.35, 143.95 248.55, 117 249 M156 210 C154.76 236.44, 142.08 248.93, 117 249 M117 249 C92.72 249.98, 66.49 248.1, 39 249 M117 249 C92.86 248.95, 69.65 250.17, 39 249 M39 249 C13.23 250.39, 1.7 234.93, 0 210 M39 249 C13.65 249.25, 1.59 236.06, 0 210 M0 210 C0.09 144.65, 0.86 79.59, 0 39 M0 210 C1.02 167.55, 0.4 124.88, 0 39 M0 39 C0.29 12.05, 12.28 -0.12, 39 0 M0 39 C1.21 12.7, 14.57 -0.69, 39 0" stroke="#000000" stroke-width="2" fill="none"></path></g><g stroke-linecap="round"><g transform="translate(1377.8362686671924 372.38597986657135) rotate(0 -66.91813433359619 -19.64457867329088)"><path d="M0 0 C-22.31 -6.55, -111.53 -32.74, -133.84 -39.29 M0 0 C-22.31 -6.55, -111.53 -32.74, -133.84 -39.29" stroke="#000000" stroke-width="1" fill="none"></path></g><g transform="translate(1377.8362686671924 372.38597986657135) rotate(0 -66.91813433359619 -19.64457867329088)"><path d="M-103.9 -41.19 C-110.45 -40.78, -117.01 -40.36, -133.84 -39.29 M-103.9 -41.19 C-115.11 -40.48, -126.32 -39.77, -133.84 -39.29" stroke="#000000" stroke-width="1" fill="none"></path></g><g transform="translate(1377.8362686671924 372.38597986657135) rotate(0 -66.91813433359619 -19.64457867329088)"><path d="M-109.68 -21.5 C-114.97 -25.4, -120.26 -29.29, -133.84 -39.29 M-109.68 -21.5 C-118.72 -28.16, -127.77 -34.82, -133.84 -39.29" stroke="#000000" stroke-width="1" fill="none"></path></g></g><g transform="translate(1385.5 378) rotate(0 121 11)"><text x="121.00000000000003" y="15" font-family="Virgil, Segoe UI Emoji" font-size="17.599999999999998px" fill="#000000" text-anchor="middle" style="white-space: pre;" direction="ltr">Este puede ser un carousel</text></g><g transform="translate(814 686.5) rotate(0 74 12.5)"><text x="0" y="18" font-family="Virgil, Segoe UI Emoji" font-size="20px" fill="#000000" text-anchor="start" style="white-space: pre;" direction="ltr">P치gina de inicio</text></g><g stroke-linecap="round" transform="translate(390 724.5) rotate(0 486 286.5)"><path d="M-0.28 0.37 C307.4 -0.53, 615.69 -1.25, 972.03 -0.44 M0.13 0.1 C378.86 -2.64, 758.2 -2.36, 972.02 -0.05 M971.36 0.76 C973.14 195.76, 972.67 393.07, 971.75 573.23 M971.73 -0.01 C971.27 218.19, 971.55 436.2, 971.61 572.73 M972.5 572.74 C594.77 576.52, 218.73 577.12, -0.34 573.75 M971.88 572.96 C743.44 574.57, 515.1 574.67, -0.26 572.67 M0.7 572.66 C2.16 423.46, 2.56 271.55, 0.3 0.14 M0.34 573.14 C-0.81 429.57, -0.59 286.12, 0.21 0.17" stroke="#000000" stroke-width="2" fill="none"></path></g><g stroke-linecap="round"><g transform="translate(391 810) rotate(0 485.50000000000006 -1)"><path d="M0 0 C161.83 -0.33, 809.17 -1.67, 971 -2 M0 0 C161.83 -0.33, 809.17 -1.67, 971 -2" stroke="#000000" stroke-width="1" fill="none"></path></g></g><g stroke-linecap="round" transform="translate(421 750) rotate(0 119 19.5)"><path d="M9.75 0 M9.75 0 C73.46 0, 137.17 0, 228.25 0 M9.75 0 C82.43 0, 155.11 0, 228.25 0 M228.25 0 C234.75 0, 238 3.25, 238 9.75 M228.25 0 C234.75 0, 238 3.25, 238 9.75 M238 9.75 C238 17.14, 238 24.52, 238 29.25 M238 9.75 C238 16.63, 238 23.52, 238 29.25 M238 29.25 C238 35.75, 234.75 39, 228.25 39 M238 29.25 C238 35.75, 234.75 39, 228.25 39 M228.25 39 C158.27 39, 88.28 39, 9.75 39 M228.25 39 C155.44 39, 82.64 39, 9.75 39 M9.75 39 C3.25 39, 0 35.75, 0 29.25 M9.75 39 C3.25 39, 0 35.75, 0 29.25 M0 29.25 C0 25.18, 0 21.11, 0 9.75 M0 29.25 C0 23.19, 0 17.13, 0 9.75 M0 9.75 C0 3.25, 3.25 0, 9.75 0 M0 9.75 C0 3.25, 3.25 0, 9.75 0" stroke="#000000" stroke-width="1" fill="none"></path></g><g transform="translate(427.5 760) rotate(0 105.5 17)"><text x="105.5" y="21" font-family="Virgil, Segoe UI Emoji" font-size="20px" fill="#000000" text-anchor="middle" style="white-space: pre;" direction="ltr">游댌Barra de b칰squeda</text></g><g transform="translate(10 829) rotate(0 171.5 10.5)"><text x="171.5" y="15" font-family="Virgil, Segoe UI Emoji" font-size="17.23618090452261px" fill="#000000" text-anchor="middle" style="white-space: pre;" direction="ltr">Busca por nombre, g칠nero o clasificaci칩n</text></g><g stroke-linecap="round"><g transform="translate(335.61242064239497 823) rotate(0 37.19378967880252 -21.055486873128245)"><path d="M0 0 C12.4 -7.02, 61.99 -35.09, 74.39 -42.11 M0 0 C12.4 -7.02, 61.99 -35.09, 74.39 -42.11" stroke="#000000" stroke-width="1" fill="none"></path></g><g transform="translate(335.61242064239497 823) rotate(0 37.19378967880252 -21.055486873128245)"><path d="M54.91 -19.29 C61.26 -26.74, 67.62 -34.18, 74.39 -42.11 M54.91 -19.29 C59.94 -25.19, 64.97 -31.08, 74.39 -42.11" stroke="#000000" stroke-width="1" fill="none"></path></g><g transform="translate(335.61242064239497 823) rotate(0 37.19378967880252 -21.055486873128245)"><path d="M44.8 -37.15 C54.45 -38.77, 64.11 -40.39, 74.39 -42.11 M44.8 -37.15 C52.44 -38.43, 60.08 -39.71, 74.39 -42.11" stroke="#000000" stroke-width="1" fill="none"></path></g></g><g stroke-linecap="round" transform="translate(426 837) rotate(0 87.5 98.5)"><path d="M43.75 0 M43.75 0 C66.72 0, 89.68 0, 131.25 0 M43.75 0 C65.62 0, 87.48 0, 131.25 0 M131.25 0 C160.42 0, 175 14.58, 175 43.75 M131.25 0 C160.42 0, 175 14.58, 175 43.75 M175 43.75 C175 67.67, 175 91.59, 175 153.25 M175 43.75 C175 68.6, 175 93.46, 175 153.25 M175 153.25 C175 182.42, 160.42 197, 131.25 197 M175 153.25 C175 182.42, 160.42 197, 131.25 197 M131.25 197 C102.5 197, 73.75 197, 43.75 197 M131.25 197 C102.26 197, 73.26 197, 43.75 197 M43.75 197 C14.58 197, 0 182.42, 0 153.25 M43.75 197 C14.58 197, 0 182.42, 0 153.25 M0 153.25 C0 125.21, 0 97.17, 0 43.75 M0 153.25 C0 124.14, 0 95.04, 0 43.75 M0 43.75 C0 14.58, 14.58 0, 43.75 0 M0 43.75 C0 14.58, 14.58 0, 43.75 0" stroke="#000000" stroke-width="1" fill="none"></path></g><g transform="translate(446.5 854.5) rotate(0 66.5 10)"><text x="66.5" y="14" font-family="Virgil, Segoe UI Emoji" font-size="16px" fill="#000000" text-anchor="middle" style="white-space: pre;" direction="ltr">Filtrar cartelera</text></g><g stroke-linecap="round" transform="translate(443 915) rotate(0 70 12)"><path d="M6 0 M6 0 C56.69 0, 107.38 0, 134 0 M6 0 C40.25 0, 74.49 0, 134 0 M134 0 C138 0, 140 2, 140 6 M134 0 C138 0, 140 2, 140 6 M140 6 C140 8.77, 140 11.55, 140 18 M140 6 C140 8.62, 140 11.24, 140 18 M140 18 C140 22, 138 24, 134 24 M140 18 C140 22, 138 24, 134 24 M134 24 C92.99 24, 51.97 24, 6 24 M134 24 C102.59 24, 71.19 24, 6 24 M6 24 C2 24, 0 22, 0 18 M6 24 C2 24, 0 22, 0 18 M0 18 C0 13.96, 0 9.92, 0 6 M0 18 C0 13.37, 0 8.74, 0 6 M0 6 C0 2, 2 0, 6 0 M0 6 C0 2, 2 0, 6 0" stroke="#000000" stroke-width="1" fill="none"></path></g><g stroke-linecap="round" transform="translate(443 960) rotate(0 70 12)"><path d="M6 0 M6 0 C38.47 0, 70.94 0, 134 0 M6 0 C53.21 0, 100.42 0, 134 0 M134 0 C138 0, 140 2, 140 6 M134 0 C138 0, 140 2, 140 6 M140 6 C140 9.57, 140 13.14, 140 18 M140 6 C140 9.18, 140 12.36, 140 18 M140 18 C140 22, 138 24, 134 24 M140 18 C140 22, 138 24, 134 24 M134 24 C88.82 24, 43.64 24, 6 24 M134 24 C98.29 24, 62.57 24, 6 24 M6 24 C2 24, 0 22, 0 18 M6 24 C2 24, 0 22, 0 18 M0 18 C0 15.22, 0 12.43, 0 6 M0 18 C0 13.72, 0 9.44, 0 6 M0 6 C0 2, 2 0, 6 0 M0 6 C0 2, 2 0, 6 0" stroke="#000000" stroke-width="1" fill="none"></path></g><g transform="translate(460.5 918) rotate(0 43.5 10)"><text x="43.5" y="14" font-family="Virgil, Segoe UI Emoji" font-size="16px" fill="#000000" text-anchor="middle" style="white-space: pre;" direction="ltr">ID Estado</text></g><g transform="translate(457 965) rotate(0 47 10)"><text x="47" y="14" font-family="Virgil, Segoe UI Emoji" font-size="16px" fill="#000000" text-anchor="middle" style="white-space: pre;" direction="ltr">ID Municipio</text></g><g stroke-linecap="round" transform="translate(474 1000) rotate(0 33.5 15)"><path d="M7.5 0 M7.5 0 C19.08 0, 30.66 0, 59.5 0 M7.5 0 C24.69 0, 41.87 0, 59.5 0 M59.5 0 C64.5 0, 67 2.5, 67 7.5 M59.5 0 C64.5 0, 67 2.5, 67 7.5 M67 7.5 C67 13.33, 67 19.15, 67 22.5 M67 7.5 C67 12.19, 67 16.88, 67 22.5 M67 22.5 C67 27.5, 64.5 30, 59.5 30 M67 22.5 C67 27.5, 64.5 30, 59.5 30 M59.5 30 C46.44 30, 33.39 30, 7.5 30 M59.5 30 C44.16 30, 28.83 30, 7.5 30 M7.5 30 C2.5 30, 0 27.5, 0 22.5 M7.5 30 C2.5 30, 0 27.5, 0 22.5 M0 22.5 C0 17.35, 0 12.2, 0 7.5 M0 22.5 C0 16.83, 0 11.17, 0 7.5 M0 7.5 C0 2.5, 2.5 0, 7.5 0 M0 7.5 C0 2.5, 2.5 0, 7.5 0" stroke="#000000" stroke-width="1" fill="none"></path></g><g transform="translate(479 1005) rotate(0 28.5 10)"><text x="28.5" y="14" font-family="Virgil, Segoe UI Emoji" font-size="16px" fill="#000000" text-anchor="middle" style="white-space: pre;" direction="ltr">Aplicar</text></g><g stroke-linecap="round"><g transform="translate(695 861) rotate(0 303.5 0)"><path d="M0 0 C101.17 0, 505.83 0, 607 0 M0 0 C101.17 0, 505.83 0, 607 0" stroke="#000000" stroke-width="1" fill="none"></path></g></g><g transform="translate(707 832) rotate(0 27 10)"><text x="27" y="14" font-family="Virgil, Segoe UI Emoji" font-size="16px" fill="#000000" text-anchor="middle" style="white-space: pre;" direction="ltr">Nombre</text></g><g transform="translate(1011 831) rotate(0 18 10)"><text x="18" y="14" font-family="Virgil, Segoe UI Emoji" font-size="16px" fill="#000000" text-anchor="middle" style="white-space: pre;" direction="ltr">Sala</text></g><g transform="translate(1100 830) rotate(0 18 10)"><text x="18" y="14" font-family="Virgil, Segoe UI Emoji" font-size="16px" fill="#000000" text-anchor="middle" style="white-space: pre;" direction="ltr">Hora</text></g><g transform="translate(1205 831) rotate(0 23 10)"><text x="23" y="14" font-family="Virgil, Segoe UI Emoji" font-size="16px" fill="#000000" text-anchor="middle" style="white-space: pre;" direction="ltr">Fecha</text></g><g stroke-linecap="round" transform="translate(427.5 1064.5) rotate(0 87.5 98.5)"><path d="M43.75 0 M43.75 0 C69.14 0, 94.53 0, 131.25 0 M43.75 0 C68.99 0, 94.24 0, 131.25 0 M131.25 0 C160.42 0, 175 14.58, 175 43.75 M131.25 0 C160.42 0, 175 14.58, 175 43.75 M175 43.75 C175 72.97, 175 102.18, 175 153.25 M175 43.75 C175 75.67, 175 107.59, 175 153.25 M175 153.25 C175 182.42, 160.42 197, 131.25 197 M175 153.25 C175 182.42, 160.42 197, 131.25 197 M131.25 197 C110.41 197, 89.58 197, 43.75 197 M131.25 197 C98.34 197, 65.42 197, 43.75 197 M43.75 197 C14.58 197, 0 182.42, 0 153.25 M43.75 197 C14.58 197, 0 182.42, 0 153.25 M0 153.25 C0 118.41, 0 83.57, 0 43.75 M0 153.25 C0 111.42, 0 69.6, 0 43.75 M0 43.75 C0 14.58, 14.58 0, 43.75 0 M0 43.75 C0 14.58, 14.58 0, 43.75 0" stroke="#000000" stroke-width="1" fill="none"></path></g><g transform="translate(480 1088) rotate(0 31 10)"><text x="31" y="14" font-family="Virgil, Segoe UI Emoji" font-size="16px" fill="#000000" text-anchor="middle" style="white-space: pre;" direction="ltr">Ordenar</text></g><g stroke-linecap="round" transform="translate(445 1122) rotate(0 4.5 4.5)"><path d="M9 4.5 C9 4.76, 8.98 5.02, 8.93 5.28 C8.89 5.54, 8.82 5.79, 8.73 6.04 C8.64 6.28, 8.53 6.52, 8.4 6.75 C8.27 6.98, 8.11 7.19, 7.95 7.39 C7.78 7.59, 7.59 7.78, 7.39 7.95 C7.19 8.11, 6.98 8.27, 6.75 8.4 C6.52 8.53, 6.28 8.64, 6.04 8.73 C5.79 8.82, 5.54 8.89, 5.28 8.93 C5.02 8.98, 4.76 9, 4.5 9 C4.24 9, 3.98 8.98, 3.72 8.93 C3.46 8.89, 3.21 8.82, 2.96 8.73 C2.72 8.64, 2.48 8.53, 2.25 8.4 C2.02 8.27, 1.81 8.11, 1.61 7.95 C1.41 7.78, 1.22 7.59, 1.05 7.39 C0.89 7.19, 0.73 6.98, 0.6 6.75 C0.47 6.52, 0.36 6.28, 0.27 6.04 C0.18 5.79, 0.11 5.54, 0.07 5.28 C0.02 5.02, 0 4.76, 0 4.5 C0 4.24, 0.02 3.98, 0.07 3.72 C0.11 3.46, 0.18 3.21, 0.27 2.96 C0.36 2.72, 0.47 2.48, 0.6 2.25 C0.73 2.02, 0.89 1.81, 1.05 1.61 C1.22 1.41, 1.41 1.22, 1.61 1.05 C1.81 0.89, 2.02 0.73, 2.25 0.6 C2.48 0.47, 2.72 0.36, 2.96 0.27 C3.21 0.18, 3.46 0.11, 3.72 0.07 C3.98 0.02, 4.24 0, 4.5 0 C4.76 0, 5.02 0.02, 5.28 0.07 C5.54 0.11, 5.79 0.18, 6.04 0.27 C6.28 0.36, 6.52 0.47, 6.75 0.6 C6.98 0.73, 7.19 0.89, 7.39 1.05 C7.59 1.22, 7.78 1.41, 7.95 1.61 C8.11 1.81, 8.27 2.02, 8.4 2.25 C8.53 2.48, 8.64 2.72, 8.73 2.96 C8.82 3.21, 8.89 3.46, 8.93 3.72 C8.98 3.98, 8.99 4.37, 9 4.5 C9.01 4.63, 9.01 4.37, 9 4.5" stroke="#000000" stroke-width="1" fill="none"></path></g><g stroke-linecap="round" transform="translate(444.5 1145.5) rotate(0 4.5 4.5)"><path d="M9 4.5 C9 4.76, 8.98 5.02, 8.93 5.28 C8.89 5.54, 8.82 5.79, 8.73 6.04 C8.64 6.28, 8.53 6.52, 8.4 6.75 C8.27 6.98, 8.11 7.19, 7.95 7.39 C7.78 7.59, 7.59 7.78, 7.39 7.95 C7.19 8.11, 6.98 8.27, 6.75 8.4 C6.52 8.53, 6.28 8.64, 6.04 8.73 C5.79 8.82, 5.54 8.89, 5.28 8.93 C5.02 8.98, 4.76 9, 4.5 9 C4.24 9, 3.98 8.98, 3.72 8.93 C3.46 8.89, 3.21 8.82, 2.96 8.73 C2.72 8.64, 2.48 8.53, 2.25 8.4 C2.02 8.27, 1.81 8.11, 1.61 7.95 C1.41 7.78, 1.22 7.59, 1.05 7.39 C0.89 7.19, 0.73 6.98, 0.6 6.75 C0.47 6.52, 0.36 6.28, 0.27 6.04 C0.18 5.79, 0.11 5.54, 0.07 5.28 C0.02 5.02, 0 4.76, 0 4.5 C0 4.24, 0.02 3.98, 0.07 3.72 C0.11 3.46, 0.18 3.21, 0.27 2.96 C0.36 2.72, 0.47 2.48, 0.6 2.25 C0.73 2.02, 0.89 1.81, 1.05 1.61 C1.22 1.41, 1.41 1.22, 1.61 1.05 C1.81 0.89, 2.02 0.73, 2.25 0.6 C2.48 0.47, 2.72 0.36, 2.96 0.27 C3.21 0.18, 3.46 0.11, 3.72 0.07 C3.98 0.02, 4.24 0, 4.5 0 C4.76 0, 5.02 0.02, 5.28 0.07 C5.54 0.11, 5.79 0.18, 6.04 0.27 C6.28 0.36, 6.52 0.47, 6.75 0.6 C6.98 0.73, 7.19 0.89, 7.39 1.05 C7.59 1.22, 7.78 1.41, 7.95 1.61 C8.11 1.81, 8.27 2.02, 8.4 2.25 C8.53 2.48, 8.64 2.72, 8.73 2.96 C8.82 3.21, 8.89 3.46, 8.93 3.72 C8.98 3.98, 8.99 4.37, 9 4.5 C9.01 4.63, 9.01 4.37, 9 4.5" stroke="#000000" stroke-width="1" fill="none"></path></g><g stroke-linecap="round" transform="translate(445.5 1170.5) rotate(0 4.5 4.5)"><path d="M9 4.5 C9 4.76, 8.98 5.02, 8.93 5.28 C8.89 5.54, 8.82 5.79, 8.73 6.04 C8.64 6.28, 8.53 6.52, 8.4 6.75 C8.27 6.98, 8.11 7.19, 7.95 7.39 C7.78 7.59, 7.59 7.78, 7.39 7.95 C7.19 8.11, 6.98 8.27, 6.75 8.4 C6.52 8.53, 6.28 8.64, 6.04 8.73 C5.79 8.82, 5.54 8.89, 5.28 8.93 C5.02 8.98, 4.76 9, 4.5 9 C4.24 9, 3.98 8.98, 3.72 8.93 C3.46 8.89, 3.21 8.82, 2.96 8.73 C2.72 8.64, 2.48 8.53, 2.25 8.4 C2.02 8.27, 1.81 8.11, 1.61 7.95 C1.41 7.78, 1.22 7.59, 1.05 7.39 C0.89 7.19, 0.73 6.98, 0.6 6.75 C0.47 6.52, 0.36 6.28, 0.27 6.04 C0.18 5.79, 0.11 5.54, 0.07 5.28 C0.02 5.02, 0 4.76, 0 4.5 C0 4.24, 0.02 3.98, 0.07 3.72 C0.11 3.46, 0.18 3.21, 0.27 2.96 C0.36 2.72, 0.47 2.48, 0.6 2.25 C0.73 2.02, 0.89 1.81, 1.05 1.61 C1.22 1.41, 1.41 1.22, 1.61 1.05 C1.81 0.89, 2.02 0.73, 2.25 0.6 C2.48 0.47, 2.72 0.36, 2.96 0.27 C3.21 0.18, 3.46 0.11, 3.72 0.07 C3.98 0.02, 4.24 0, 4.5 0 C4.76 0, 5.02 0.02, 5.28 0.07 C5.54 0.11, 5.79 0.18, 6.04 0.27 C6.28 0.36, 6.52 0.47, 6.75 0.6 C6.98 0.73, 7.19 0.89, 7.39 1.05 C7.59 1.22, 7.78 1.41, 7.95 1.61 C8.11 1.81, 8.27 2.02, 8.4 2.25 C8.53 2.48, 8.64 2.72, 8.73 2.96 C8.82 3.21, 8.89 3.46, 8.93 3.72 C8.98 3.98, 8.99 4.37, 9 4.5 C9.01 4.63, 9.01 4.37, 9 4.5" stroke="#000000" stroke-width="1" fill="none"></path></g><g transform="translate(458.5 1116) rotate(0 27.5 10)"><text x="27.5" y="14" font-family="Virgil, Segoe UI Emoji" font-size="16px" fill="#000000" text-anchor="middle" style="white-space: pre;" direction="ltr">Horario</text></g><g transform="translate(458 1140) rotate(0 23 10)"><text x="23" y="14" font-family="Virgil, Segoe UI Emoji" font-size="16px" fill="#000000" text-anchor="middle" style="white-space: pre;" direction="ltr">Fecha</text></g><g transform="translate(459 1166) rotate(0 18 10)"><text x="18" y="14" font-family="Virgil, Segoe UI Emoji" font-size="16px" fill="#000000" text-anchor="middle" style="white-space: pre;" direction="ltr">Sala</text></g><g stroke-linecap="round" transform="translate(444 1212) rotate(0 28 15)"><path d="M7.5 0 M7.5 0 C19.35 0, 31.19 0, 48.5 0 M7.5 0 C19.31 0, 31.11 0, 48.5 0 M48.5 0 C53.5 0, 56 2.5, 56 7.5 M48.5 0 C53.5 0, 56 2.5, 56 7.5 M56 7.5 C56 13.4, 56 19.29, 56 22.5 M56 7.5 C56 10.55, 56 13.6, 56 22.5 M56 22.5 C56 27.5, 53.5 30, 48.5 30 M56 22.5 C56 27.5, 53.5 30, 48.5 30 M48.5 30 C32.59 30, 16.68 30, 7.5 30 M48.5 30 C35.31 30, 22.13 30, 7.5 30 M7.5 30 C2.5 30, 0 27.5, 0 22.5 M7.5 30 C2.5 30, 0 27.5, 0 22.5 M0 22.5 C0 19.32, 0 16.14, 0 7.5 M0 22.5 C0 18.44, 0 14.37, 0 7.5 M0 7.5 C0 2.5, 2.5 0, 7.5 0 M0 7.5 C0 2.5, 2.5 0, 7.5 0" stroke="#000000" stroke-width="1" fill="none"></path></g><g transform="translate(449 1217) rotate(0 23 10)"><text x="23" y="14" font-family="Virgil, Segoe UI Emoji" font-size="16px" fill="#000000" text-anchor="middle" style="white-space: pre;" direction="ltr">拘勇</text></g><g stroke-linecap="round" transform="translate(517 1211) rotate(0 28 15)"><path d="M7.5 0 M7.5 0 C16.79 0, 26.08 0, 48.5 0 M7.5 0 C17.27 0, 27.04 0, 48.5 0 M48.5 0 C53.5 0, 56 2.5, 56 7.5 M48.5 0 C53.5 0, 56 2.5, 56 7.5 M56 7.5 C56 13.22, 56 18.94, 56 22.5 M56 7.5 C56 11.12, 56 14.74, 56 22.5 M56 22.5 C56 27.5, 53.5 30, 48.5 30 M56 22.5 C56 27.5, 53.5 30, 48.5 30 M48.5 30 C37.91 30, 27.32 30, 7.5 30 M48.5 30 C33.53 30, 18.55 30, 7.5 30 M7.5 30 C2.5 30, 0 27.5, 0 22.5 M7.5 30 C2.5 30, 0 27.5, 0 22.5 M0 22.5 C0 17.82, 0 13.14, 0 7.5 M0 22.5 C0 18.83, 0 15.16, 0 7.5 M0 7.5 C0 2.5, 2.5 0, 7.5 0 M0 7.5 C0 2.5, 2.5 0, 7.5 0" stroke="#000000" stroke-width="1" fill="none"></path></g><g transform="translate(522 1216) rotate(0 23 10)"><text x="23" y="14" font-family="Virgil, Segoe UI Emoji" font-size="16px" fill="#000000" text-anchor="middle" style="white-space: pre;" direction="ltr">拘勇</text></g><g transform="translate(705 874) rotate(0 66 10)"><text x="66" y="14" font-family="Virgil, Segoe UI Emoji" font-size="16px" fill="#000000" text-anchor="middle" style="white-space: pre;" direction="ltr">The Black Phone</text></g><g transform="translate(1022 873) rotate(0 6 10)"><text x="6" y="14" font-family="Virgil, Segoe UI Emoji" font-size="16px" fill="#000000" text-anchor="middle" style="white-space: pre;" direction="ltr">3</text></g><g transform="translate(1101.5 874) rotate(0 20.5 10)"><text x="20.5" y="14" font-family="Virgil, Segoe UI Emoji" font-size="16px" fill="#000000" text-anchor="middle" style="white-space: pre;" direction="ltr">15:00</text></g><g transform="translate(1207.5 874) rotate(0 25.5 10)"><text x="25.5" y="14" font-family="Virgil, Segoe UI Emoji" font-size="16px" fill="#000000" text-anchor="middle" style="white-space: pre;" direction="ltr">30/07</text></g><g stroke-linecap="round"><g transform="translate(693.5 900) rotate(0 303.2195090538077 0.10213913228358251)"><path d="M0.86 -0.2 C102 -0.25, 505.63 -0.14, 606.59 0.01 M-0.15 -1.34 C100.81 -1.22, 504.47 1.54, 605.42 1.55" stroke="#000000" stroke-width="1" fill="none"></path></g></g><g transform="translate(701 911) rotate(0 73 10)"><text x="73" y="14" font-family="Virgil, Segoe UI Emoji" font-size="16px" fill="#000000" text-anchor="middle" style="white-space: pre;" direction="ltr">Top Gun: Maverick</text></g><g transform="translate(1021.5 907) rotate(0 5.5 10)"><text x="5.5" y="14" font-family="Virgil, Segoe UI Emoji" font-size="16px" fill="#000000" text-anchor="middle" style="white-space: pre;" direction="ltr">4</text></g><g transform="translate(1104 907) rotate(0 17 10)"><text x="17" y="14" font-family="Virgil, Segoe UI Emoji" font-size="16px" fill="#000000" text-anchor="middle" style="white-space: pre;" direction="ltr">16:15</text></g><g transform="translate(1210.5 909) rotate(0 25.5 10)"><text x="25.5" y="14" font-family="Virgil, Segoe UI Emoji" font-size="16px" fill="#000000" text-anchor="middle" style="white-space: pre;" direction="ltr">30/07</text></g><g stroke-linecap="round"><g transform="translate(697.5 940) rotate(0 303.1129947230499 0.04981160731983891)"><path d="M0.01 -0.42 C101.32 -0.32, 506.47 0.18, 607.67 0.16 M-1.45 -1.69 C99.78 -1.34, 505.74 1.42, 607.08 1.79" stroke="#000000" stroke-width="1" fill="none"></path></g></g><g transform="translate(700 950) rotate(0 95 10)"><text x="95" y="14" font-family="Virgil, Segoe UI Emoji" font-size="16px" fill="#000000" text-anchor="middle" style="white-space: pre;" direction="ltr">Thor: Love and Thunder</text></g><g transform="translate(1025.5 949) rotate(0 2.5 10)"><text x="2.5" y="14" font-family="Virgil, Segoe UI Emoji" font-size="16px" fill="#000000" text-anchor="middle" style="white-space: pre;" direction="ltr">1</text></g><g transform="translate(1104.5 945) rotate(0 20.5 10)"><text x="20.5" y="14" font-family="Virgil, Segoe UI Emoji" font-size="16px" fill="#000000" text-anchor="middle" style="white-space: pre;" direction="ltr">16:25</text></g><g transform="translate(1212.5 947) rotate(0 25.5 10)"><text x="25.5" y="14" font-family="Virgil, Segoe UI Emoji" font-size="16px" fill="#000000" text-anchor="middle" style="white-space: pre;" direction="ltr">30/07</text></g><g stroke-linecap="round"><g transform="translate(699.5 973) rotate(0 303.9134431326669 -0.3642132143955905)"><path d="M-0.66 -0.46 C100.29 -0.17, 504.86 0.74, 606.2 1.01 M1.2 -1.74 C102.49 -1.71, 507.55 -0.77, 608.49 -0.58" stroke="#000000" stroke-width="1" fill="none"></path></g></g><g transform="translate(702.5 981) rotate(0 48.5 10)"><text x="48.5" y="14" font-family="Virgil, Segoe UI Emoji" font-size="16px" fill="#000000" text-anchor="middle" style="white-space: pre;" direction="ltr">Bullet Train</text></g><g stroke-linecap="round"><g transform="translate(703.5 1007) rotate(0 303.26534316403786 -0.40968080107131755)"><path d="M0.87 0.01 C101.89 -0.15, 505.56 -0.99, 606.66 -0.87 M-0.13 -1.03 C100.65 -1.08, 504.35 0.24, 605.54 0.21" stroke="#000000" stroke-width="1" fill="none"></path></g></g><g transform="translate(1023.5 979) rotate(0 5.5 10)"><text x="5.5" y="14" font-family="Virgil, Segoe UI Emoji" font-size="16px" fill="#000000" text-anchor="middle" style="white-space: pre;" direction="ltr">4</text></g><g transform="translate(1104.5 979) rotate(0 21.5 10)"><text x="21.5" y="14" font-family="Virgil, Segoe UI Emoji" font-size="16px" fill="#000000" text-anchor="middle" style="white-space: pre;" direction="ltr">18:25</text></g><g transform="translate(1212.5 981) rotate(0 25.5 10)"><text x="25.5" y="14" font-family="Virgil, Segoe UI Emoji" font-size="16px" fill="#000000" text-anchor="middle" style="white-space: pre;" direction="ltr">30/07</text></g><g transform="translate(703.5 1018) rotate(0 102.5 10)"><text x="102.5" y="14" font-family="Virgil, Segoe UI Emoji" font-size="16px" fill="#000000" text-anchor="middle" style="white-space: pre;" direction="ltr">DC League of Super-Pets</text></g><g transform="translate(1025 1012) rotate(0 6 10)"><text x="6" y="14" font-family="Virgil, Segoe UI Emoji" font-size="16px" fill="#000000" text-anchor="middle" style="white-space: pre;" direction="ltr">2</text></g><g transform="translate(1105.5 1014) rotate(0 21.5 10)"><text x="21.5" y="14" font-family="Virgil, Segoe UI Emoji" font-size="16px" fill="#000000" text-anchor="middle" style="white-space: pre;" direction="ltr">18:30</text></g><g transform="translate(1215.5 1014) rotate(0 25.5 10)"><text x="25.5" y="14" font-family="Virgil, Segoe UI Emoji" font-size="16px" fill="#000000" text-anchor="middle" style="white-space: pre;" direction="ltr">30/07</text></g><g stroke-linecap="round" transform="translate(1229.5 750.5) rotate(0 49.5 20.5)"><path d="M10.25 0 M10.25 0 C28.55 0.89, 47.94 1.16, 88.75 0 M10.25 0 C39.18 -0.81, 67.14 0.03, 88.75 0 M88.75 0 C95.77 0.74, 99.27 2.95, 99 10.25 M88.75 0 C97.59 1.28, 97.6 3.46, 99 10.25 M99 10.25 C99.39 13.44, 97.43 20.28, 99 30.75 M99 10.25 C99.73 18.15, 98.65 24.09, 99 30.75 M99 30.75 C97.77 36.1, 94.13 40.98, 88.75 41 M99 30.75 C98.87 38.94, 94.14 42.27, 88.75 41 M88.75 41 C71.14 40.16, 51.78 41.44, 10.25 41 M88.75 41 C71.46 40.53, 55.02 40.42, 10.25 41 M10.25 41 C3.23 42.45, 0.38 37.4, 0 30.75 M10.25 41 C4.22 41.3, -2.08 39.33, 0 30.75 M0 30.75 C-0.81 25.33, 1.88 20.65, 0 10.25 M0 30.75 C-0.83 25.52, 0.63 19.38, 0 10.25 M0 10.25 C-1.63 4.89, 3.16 -1.47, 10.25 0 M0 10.25 C-0.43 3.22, 1.8 1.36, 10.25 0" stroke="#000000" stroke-width="2" fill="none"></path></g><g transform="translate(1234.5 758.5) rotate(0 44.5 12.5)"><text x="44.5" y="18" font-family="Virgil, Segoe UI Emoji" font-size="20px" fill="#000000" text-anchor="middle" style="white-space: pre;" direction="ltr">Salir</text></g><g transform="translate(844.3571428571429 880.0178571428572) rotate(0 10.60714285714289 6.428571428571445)"><text x="10.607142857142883" y="8.85714285714289" font-family="Virgil, Segoe UI Emoji" font-size="10.285714285714313px" fill="#000000" text-anchor="middle" style="white-space: pre;" direction="ltr">B-15</text></g><g stroke-linecap="round" transform="translate(842.4285714285714 878.9464285714287) rotate(0 12.5 7.14285714285711)"><path d="M3.57 0 M3.57 0 C6.24 -1.61, 11.87 1.36, 21.43 0 M3.57 0 C8.91 0.29, 14.13 0.96, 21.43 0 M21.43 0 C24.32 0.94, 26.92 0.24, 25 3.57 M21.43 0 C23.02 -1.33, 23.62 0.06, 25 3.57 M25 3.57 C25.02 6.09, 24.43 9.71, 25 10.71 M25 3.57 C25.01 5.45, 25 7.83, 25 10.71 M25 10.71 C23.11 14.33, 22.48 13.45, 21.43 14.29 M25 10.71 C25.08 14.49, 25.42 15.69, 21.43 14.29 M21.43 14.29 C17.43 14.15, 14.22 15.54, 3.57 14.29 M21.43 14.29 C16.44 14.65, 11.74 13.53, 3.57 14.29 M3.57 14.29 C2.78 14, 0.19 14.22, 0 10.71 M3.57 14.29 C2.62 14.74, 1.41 14.29, 0 10.71 M0 10.71 C0.06 8.91, 0.26 6.08, 0 3.57 M0 10.71 C0.26 8.99, -0.32 7.17, 0 3.57 M0 3.57 C-0.43 1.86, 2.46 0.4, 3.57 0 M0 3.57 C-1.62 2.57, 1 0.99, 3.57 0" stroke="#000000" stroke-width="1" fill="none"></path></g><g transform="translate(859.5 916.2321428571431) rotate(0 4.410714285714334 6.785714285714334)"><text x="4.4107142857143185" y="9.571428571428669" font-family="Virgil, Segoe UI Emoji" font-size="10.85714285714294px" fill="#000000" text-anchor="middle" style="white-space: pre;" direction="ltr">B</text></g><g stroke-linecap="round" transform="translate(856 914.6607142857142) rotate(0 7.857142857142833 6.785714285714334)"><path d="M3.39 0 M3.39 0 C5.31 0.52, 7.61 0.19, 12.32 0 M3.39 0 C6.87 -0.34, 9.91 0.28, 12.32 0 M12.32 0 C15.43 -0.25, 14.53 1.61, 15.71 3.39 M12.32 0 C15.71 1.76, 15.7 -0.81, 15.71 3.39 M15.71 3.39 C16.13 5.35, 15.22 7.45, 15.71 10.18 M15.71 3.39 C15.64 5.12, 15.75 7.29, 15.71 10.18 M15.71 10.18 C16.17 14.35, 16.25 11.87, 12.32 13.57 M15.71 10.18 C14.76 13.1, 14.57 12.6, 12.32 13.57 M12.32 13.57 C8.01 13.57, 5.5 13.61, 3.39 13.57 M12.32 13.57 C9.7 13.71, 7.07 13.22, 3.39 13.57 M3.39 13.57 C0.05 15.27, -0.07 12.08, 0 10.18 M3.39 13.57 C1.55 11.76, 0.21 14.71, 0 10.18 M0 10.18 C-0.49 8.36, -0.4 6.65, 0 3.39 M0 10.18 C0.3 8.38, 0.32 5.75, 0 3.39 M0 3.39 C0.49 1.45, -0.6 1.4, 3.39 0 M0 3.39 C-0.19 1.77, -0.41 -0.48, 3.39 0" stroke="#000000" stroke-width="1" fill="none"></path></g><g transform="translate(899.5714285714286 956.2321428571427) rotate(0 11.22448979591843 6.285714285714334)"><text x="11.224489795918455" y="8.571428571428669" font-family="Virgil, Segoe UI Emoji" font-size="10.420273603947171px" fill="#000000" text-anchor="middle" style="white-space: pre;" direction="ltr">B-15</text></g><g stroke-linecap="round" transform="translate(895.2857142857142 952.5178571428571) rotate(0 14.642857142857167 7.5)"><path d="M3.75 0 M3.75 0 C12.3 1, 20.03 2.13, 25.54 0 M3.75 0 C11.49 0.86, 20.84 -0.62, 25.54 0 M25.54 0 C28.37 -0.91, 30.79 2.26, 29.29 3.75 M25.54 0 C26.88 0.58, 29.79 1.55, 29.29 3.75 M29.29 3.75 C29.71 6.1, 29.04 7.9, 29.29 11.25 M29.29 3.75 C29.34 6.49, 29.28 9.58, 29.29 11.25 M29.29 11.25 C29.44 12.73, 28.66 15.02, 25.54 15 M29.29 11.25 C30.52 12.26, 29.01 15.49, 25.54 15 M25.54 15 C20.21 16.99, 13.74 15.98, 3.75 15 M25.54 15 C19.79 14.03, 13.04 14.23, 3.75 15 M3.75 15 C2.22 16.01, -1.12 13.21, 0 11.25 M3.75 15 C1.17 14.56, -0.32 11.47, 0 11.25 M0 11.25 C0.25 9.4, 0.31 7.5, 0 3.75 M0 11.25 C-0.27 8.83, -0.31 5.86, 0 3.75 M0 3.75 C-1.2 3.16, 0.81 2, 3.75 0 M0 3.75 C-1.98 -0.32, 2.83 2.25, 3.75 0" stroke="#000000" stroke-width="1" fill="none"></path></g><g transform="translate(810.2142857142857 984.8035714285716) rotate(0 4.535714285714221 6.978021978021843)"><text x="4.535714285714197" y="9.95604395604368" font-family="Virgil, Segoe UI Emoji" font-size="11.164835164834948px" fill="#000000" text-anchor="middle" style="white-space: pre;" direction="ltr">B</text></g><g stroke-linecap="round" transform="translate(806.7142857142857 983.2321428571429) rotate(0 7.85714285714289 8.571428571428555)"><path d="M3.93 0 M3.93 0 C5.37 0.16, 8.36 0.35, 11.79 0 M3.93 0 C6.1 0.14, 8.26 -0.19, 11.79 0 M11.79 0 C15.19 -1.57, 14.32 0.11, 15.71 3.93 M11.79 0 C16.6 -0.51, 18.01 -0.67, 15.71 3.93 M15.71 3.93 C16.32 6.27, 15.3 7.63, 15.71 13.21 M15.71 3.93 C15.9 5.86, 15.8 8.05, 15.71 13.21 M15.71 13.21 C17.22 16.57, 16.32 18.82, 11.79 17.14 M15.71 13.21 C15.9 18.11, 15.49 18.21, 11.79 17.14 M11.79 17.14 C8.96 16.99, 6.75 17.07, 3.93 17.14 M11.79 17.14 C9.64 16.7, 7.87 17.39, 3.93 17.14 M3.93 17.14 C3.22 15.36, 0.22 16.14, 0 13.21 M3.93 17.14 C1.61 15.11, -1.62 17.59, 0 13.21 M0 13.21 C-0.79 9.3, 0.17 7.67, 0 3.93 M0 13.21 C0.42 10.25, 0.25 7.01, 0 3.93 M0 3.93 C-0.18 1, -0.25 0.78, 3.93 0 M0 3.93 C-1.08 1.12, -0.4 -0.92, 3.93 0" stroke="#000000" stroke-width="1" fill="none"></path></g><g transform="translate(917.8571428571429 1021.2321428571429) rotate(0 6.964285714285722 6.3311688311688386)"><text x="6.9642857142857375" y="8.662337662337702" font-family="Virgil, Segoe UI Emoji" font-size="10.129870129870161px" fill="#000000" text-anchor="middle" style="white-space: pre;" direction="ltr">AA</text></g><g stroke-linecap="round" transform="translate(916.7142857142857 1017.5178571428571) rotate(0 10 8.571428571428555)"><path d="M4.29 0 M4.29 0 C7.32 -0.9, 12.41 1, 15.71 0 M4.29 0 C8.7 0.38, 12.46 0.36, 15.71 0 M15.71 0 C18.39 -0.31, 18.44 2.21, 20 4.29 M15.71 0 C17.49 -0.19, 18.29 0.51, 20 4.29 M20 4.29 C19.59 8.27, 20.8 10.65, 20 12.86 M20 4.29 C20.11 6.02, 19.68 8.06, 20 12.86 M20 12.86 C21.86 15.73, 19.81 16.38, 15.71 17.14 M20 12.86 C17.78 13.88, 18.43 18.62, 15.71 17.14 M15.71 17.14 C12.42 17.9, 8.86 17.83, 4.29 17.14 M15.71 17.14 C13.62 17.26, 10.27 17.59, 4.29 17.14 M4.29 17.14 C3.17 15.85, 1.31 14.28, 0 12.86 M4.29 17.14 C3.45 17.63, 2.02 15.66, 0 12.86 M0 12.86 C0.2 9.22, 0.56 6.26, 0 4.29 M0 12.86 C0.16 9.98, 0.18 7.49, 0 4.29 M0 4.29 C0.59 2.08, 3.11 -0.9, 4.29 0 M0 4.29 C2.17 1.21, 3.11 -1.18, 4.29 0" stroke="#000000" stroke-width="1" fill="none"></path></g><g stroke-linecap="round" transform="translate(392 1404.875) rotate(0 486 286.5)"><path d="M0.01 0.49 C201.31 -4.38, 402.59 -3.66, 972.51 -0.05 M0.29 -0.05 C252.21 -0.49, 504.27 -0.01, 972.38 0.04 M971.48 0.52 C972.98 156.48, 973.72 312.25, 971.98 573.4 M971.7 0.22 C971.8 118.56, 971.96 237.42, 972.13 572.64 M972.26 573.67 C645.19 574.9, 319.02 574.73, -0.41 572.59 M971.86 573.02 C594 571.49, 216.96 572.19, -0.03 573.11 M-0.47 573.03 C-2.15 378.22, -1.58 183.11, -0.66 0.37 M-0.01 573.3 C0.05 454.45, 0.47 336.34, 0.27 0.08" stroke="#000000" stroke-width="2" fill="none"></path></g><g transform="translate(757.5 1369.875) rotate(0 128 12.5)"><text x="0" y="18" font-family="Virgil, Segoe UI Emoji" font-size="20px" fill="#000000" text-anchor="start" style="white-space: pre;" direction="ltr">P치gina de detalle pel칤cula</text></g><g stroke-linecap="round"><g transform="translate(392 1482.375) rotate(0 485.37093633938576 0.33676677241919606)"><path d="M0.01 0.11 C162.14 -0.03, 810.31 0.04, 972.18 0.35 M-1.44 -0.88 C160.6 -0.36, 808.8 1.38, 971.33 1.55" stroke="#000000" stroke-width="1" fill="none"></path></g></g><g stroke-linecap="round" transform="translate(1234.5 1424.875) rotate(0 49.5 20.5)"><path d="M10.25 0 M10.25 0 C26.95 -0.83, 46.81 0.08, 88.75 0 M10.25 0 C42.24 0.12, 72.81 0.25, 88.75 0 M88.75 0 C96.82 1.15, 97.14 3.71, 99 10.25 M88.75 0 C95.26 -1.54, 98.64 3.66, 99 10.25 M99 10.25 C99.41 15.01, 100.55 21.68, 99 30.75 M99 10.25 C99.09 16.22, 99.51 21.66, 99 30.75 M99 30.75 C97.25 36.09, 93.6 39.33, 88.75 41 M99 30.75 C99.98 37.47, 95.83 40.49, 88.75 41 M88.75 41 C70.73 40.52, 55.39 39.13, 10.25 41 M88.75 41 C69.21 42.01, 51 41.64, 10.25 41 M10.25 41 C3.85 39.46, -1.87 37.89, 0 30.75 M10.25 41 C3.78 40.4, 0.64 36.72, 0 30.75 M0 30.75 C0.07 23.24, 1.45 16.04, 0 10.25 M0 30.75 C-0.99 24.22, 0.62 18.6, 0 10.25 M0 10.25 C-1.88 3.59, 3.18 -0.16, 10.25 0 M0 10.25 C1.23 2.99, 1.37 -1.92, 10.25 0" stroke="#000000" stroke-width="2" fill="none"></path></g><g transform="translate(1239.5 1432.875) rotate(0 44.5 12.5)"><text x="44.5" y="18" font-family="Virgil, Segoe UI Emoji" font-size="20px" fill="#000000" text-anchor="middle" style="white-space: pre;" direction="ltr">Salir</text></g><g stroke-linecap="round" transform="translate(479 1506.375) rotate(0 140.5 211.5)"><path d="M70.25 0 M70.25 0 C122.98 -1.78, 176.81 0.76, 210.75 0 M70.25 0 C107.37 0.58, 142.89 0.98, 210.75 0 M210.75 0 C256.19 0.82, 279.25 25.22, 281 70.25 M210.75 0 C257.96 -0.77, 278.91 24.45, 281 70.25 M281 70.25 C284.16 164.49, 283.47 261.63, 281 352.75 M281 70.25 C282.8 151.22, 281.85 231.04, 281 352.75 M281 352.75 C282.89 398.47, 259.39 424.71, 210.75 423 M281 352.75 C279.49 398.65, 259.49 423.17, 210.75 423 M210.75 423 C179.57 422.45, 146.17 421.52, 70.25 423 M210.75 423 C179.58 422.14, 147.52 422.07, 70.25 423 M70.25 423 C22.39 423.73, 1.03 399.43, 0 352.75 M70.25 423 C23.73 424.28, 0.01 398.68, 0 352.75 M0 352.75 C-2.67 271.33, -3.41 189.84, 0 70.25 M0 352.75 C-0.71 261.41, -0.56 170.51, 0 70.25 M0 70.25 C0.72 24.39, 24.69 -1.27, 70.25 0 M0 70.25 C1.95 23.02, 23.37 -1.27, 70.25 0" stroke="#000000" stroke-width="1" fill="none"></path></g><g transform="translate(500 1563.375) rotate(0 118.89999999999998 20.5)"><text x="118.89999999999995" y="29" font-family="Virgil, Segoe UI Emoji" font-size="32.79999999999998px" fill="#000000" text-anchor="middle" style="white-space: pre;" direction="ltr">T칤tulo pel칤cula</text></g><g transform="translate(514.1766028974796 1699.561469542907) rotate(313.02506598911805 107.1343234683161 31.980395065168977)"><text x="107.13432346831608" y="44.96079013033794" font-family="Virgil, Segoe UI Emoji" font-size="51.168632104270365px" fill="#000000" text-anchor="middle" style="white-space: pre;" direction="ltr">Portada</text></g><g stroke-linecap="round"><g transform="translate(815.5 1581.375) rotate(0 102 0)"><path d="M0 0 C34 0, 170 0, 204 0 M0 0 C34 0, 170 0, 204 0" stroke="#000000" stroke-width="1" fill="none"></path></g></g><g transform="translate(829 1551.375) rotate(0 18 10)"><text x="18" y="14" font-family="Virgil, Segoe UI Emoji" font-size="16px" fill="#000000" text-anchor="middle" style="white-space: pre;" direction="ltr">Sala</text></g><g transform="translate(896 1550.375) rotate(0 18 10)"><text x="18" y="14" font-family="Virgil, Segoe UI Emoji" font-size="16px" fill="#000000" text-anchor="middle" style="white-space: pre;" direction="ltr">Hora</text></g><g transform="translate(962 1551.375) rotate(0 23 10)"><text x="23" y="14" font-family="Virgil, Segoe UI Emoji" font-size="16px" fill="#000000" text-anchor="middle" style="white-space: pre;" direction="ltr">Fecha</text></g><g transform="translate(839.5 1587.375) rotate(0 5.5 10)"><text x="5.5" y="14" font-family="Virgil, Segoe UI Emoji" font-size="16px" fill="#000000" text-anchor="middle" style="white-space: pre;" direction="ltr">4</text></g><g transform="translate(840 1622.375) rotate(0 6 10)"><text x="6" y="14" font-family="Virgil, Segoe UI Emoji" font-size="16px" fill="#000000" text-anchor="middle" style="white-space: pre;" direction="ltr">3</text></g><g stroke-linecap="round"><g transform="translate(815.5 1613.375) rotate(0 103 0)"><path d="M0 0 C34.33 0, 171.67 0, 206 0 M0 0 C34.33 0, 171.67 0, 206 0" stroke="#000000" stroke-width="1" fill="none"></path></g></g><g transform="translate(843.75 1650.875) rotate(0 2.5 10)"><text x="2.5" y="14" font-family="Virgil, Segoe UI Emoji" font-size="16px" fill="#000000" text-anchor="middle" style="white-space: pre;" direction="ltr">1</text></g><g transform="translate(841.75 1685.875) rotate(0 5.5 10)"><text x="5.5" y="14" font-family="Virgil, Segoe UI Emoji" font-size="16px" fill="#000000" text-anchor="middle" style="white-space: pre;" direction="ltr">6</text></g><g stroke-linecap="round"><g transform="translate(815.5 1647.375) rotate(0 105 0)"><path d="M0 0 C35 0, 175 0, 210 0 M0 0 C35 0, 175 0, 210 0" stroke="#000000" stroke-width="1" fill="none"></path></g></g><g stroke-linecap="round"><g transform="translate(815.5 1673.375) rotate(0 106 0)"><path d="M0 0 C35.33 0, 176.67 0, 212 0 M0 0 C35.33 0, 176.67 0, 212 0" stroke="#000000" stroke-width="1" fill="none"></path></g></g><g transform="translate(893.5 1585.375) rotate(0 20.5 10)"><text x="20.5" y="14" font-family="Virgil, Segoe UI Emoji" font-size="16px" fill="#000000" text-anchor="middle" style="white-space: pre;" direction="ltr">15:00</text></g><g transform="translate(895 1621.375) rotate(0 21 10)"><text x="21" y="14" font-family="Virgil, Segoe UI Emoji" font-size="16px" fill="#000000" text-anchor="middle" style="white-space: pre;" direction="ltr">15:20</text></g><g transform="translate(894.5 1650.375) rotate(0 20.5 10)"><text x="20.5" y="14" font-family="Virgil, Segoe UI Emoji" font-size="16px" fill="#000000" text-anchor="middle" style="white-space: pre;" direction="ltr">16:00</text></g><g transform="translate(896 1685.375) rotate(0 20 10)"><text x="20" y="14" font-family="Virgil, Segoe UI Emoji" font-size="16px" fill="#000000" text-anchor="middle" style="white-space: pre;" direction="ltr">16:45</text></g><g transform="translate(955.5 1587.375) rotate(0 25.5 10)"><text x="25.5" y="14" font-family="Virgil, Segoe UI Emoji" font-size="16px" fill="#000000" text-anchor="middle" style="white-space: pre;" direction="ltr">30/07</text></g><g transform="translate(955.5 1620.375) rotate(0 25.5 10)"><text x="25.5" y="14" font-family="Virgil, Segoe UI Emoji" font-size="16px" fill="#000000" text-anchor="middle" style="white-space: pre;" direction="ltr">30/07</text></g><g transform="translate(956.5 1651.375) rotate(0 25.5 10)"><text x="25.5" y="14" font-family="Virgil, Segoe UI Emoji" font-size="16px" fill="#000000" text-anchor="middle" style="white-space: pre;" direction="ltr">30/07</text></g><g transform="translate(954.5 1685.375) rotate(0 25.5 10)"><text x="25.5" y="14" font-family="Virgil, Segoe UI Emoji" font-size="16px" fill="#000000" text-anchor="middle" style="white-space: pre;" direction="ltr">30/07</text></g><g stroke-linecap="round" transform="translate(396 2083.875) rotate(0 486 286.5)"><path d="M0.36 -0.05 C288.83 4.01, 576.14 3.85, 971.99 0 M0.23 -0.33 C232.01 0.99, 462.85 0.42, 972.12 -0.28 M971.88 -0.04 C973.18 203.98, 973.23 407.25, 972.39 573.01 M972.26 -0.2 C974.31 133.97, 974.4 267.13, 972.1 573.35 M972.26 573.27 C718.52 570.63, 465.48 569.57, -0.73 572.48 M972.25 572.85 C760.76 575.22, 549.92 574.75, -0.33 572.69 M-0.34 572.71 C0.44 424.97, 0.68 276.34, -0.74 0.14 M-0.09 572.72 C-1.32 348.7, -1.3 125.31, 0.07 0.14" stroke="#000000" stroke-width="2" fill="none"></path></g><g transform="translate(752 2044.875) rotate(0 115 12.5)"><text x="0" y="18" font-family="Virgil, Segoe UI Emoji" font-size="20px" fill="#000000" text-anchor="start" style="white-space: pre;" direction="ltr">P치gina de alta pel칤cula</text></g><g stroke-linecap="round"><g transform="translate(397 2151.375) rotate(0 485.9449110580609 -1.6983163459228763)"><path d="M-0.36 -0.17 C161.56 -0.9, 810.52 -2.61, 972.25 -3.22 M1.65 -1.31 C163.44 -1.33, 810.11 -1.47, 971.9 -1.75" stroke="#000000" stroke-width="1" fill="none"></path></g></g><g transform="translate(423 2176.875) rotate(0 216 22.5)"><text x="216" y="32" font-family="Virgil, Segoe UI Emoji" font-size="36px" fill="#000000" text-anchor="middle" style="white-space: pre;" direction="ltr">Registrar nueva pel칤cula</text></g><g stroke-linecap="round" transform="translate(551 2235.375) rotate(0 75.5 17.5)"><path d="M8.75 0 M8.75 0 C59.32 -0.11, 111.31 1.27, 142.25 0 M8.75 0 C47.53 1.42, 86.62 0.64, 142.25 0 M142.25 0 C148 -1.41, 152.04 3.47, 151 8.75 M142.25 0 C147.42 -0.49, 152.79 2.19, 151 8.75 M151 8.75 C150.6 13.99, 150.93 19.39, 151 26.25 M151 8.75 C150.9 14.69, 150.35 22.03, 151 26.25 M151 26.25 C151.79 32.41, 148.74 36.93, 142.25 35 M151 26.25 C150.66 30.3, 148.01 34.06, 142.25 35 M142.25 35 C92.42 35.52, 42.27 34.26, 8.75 35 M142.25 35 C104.39 36.51, 66.78 35.04, 8.75 35 M8.75 35 C2.38 35.76, -0.58 31.47, 0 26.25 M8.75 35 C2.2 33.74, -0.77 30.62, 0 26.25 M0 26.25 C-0.66 22.22, -1.52 19.43, 0 8.75 M0 26.25 C-0.43 23.23, -0.34 18.74, 0 8.75 M0 8.75 C1.62 4.75, 2.13 0.98, 8.75 0 M0 8.75 C1.6 2.09, 1.23 0.99, 8.75 0" stroke="#000000" stroke-width="1" fill="none"></path></g><g transform="translate(424.5 2238.375) rotate(0 33.5 12.5)"><text x="33.5" y="18" font-family="Virgil, Segoe UI Emoji" font-size="20px" fill="#000000" text-anchor="middle" style="white-space: pre;" direction="ltr">Nombre</text></g><g transform="translate(423 2288.375) rotate(0 41 12.5)"><text x="41" y="18" font-family="Virgil, Segoe UI Emoji" font-size="20px" fill="#000000" text-anchor="middle" style="white-space: pre;" direction="ltr">Director</text></g><g stroke-linecap="round" transform="translate(552.5 2285.875) rotate(0 75.5 17.5)"><path d="M8.75 0 M8.75 0 C52.13 0.1, 91.38 -0.44, 142.25 0 M8.75 0 C37.56 2.01, 65.64 0.47, 142.25 0 M142.25 0 C146.75 -0.36, 150.62 2.63, 151 8.75 M142.25 0 C150.17 0.27, 149.05 3.97, 151 8.75 M151 8.75 C150.04 12.62, 149.64 16.92, 151 26.25 M151 8.75 C151.74 14.26, 150.8 21.25, 151 26.25 M151 26.25 C151.31 30.18, 148.19 34.58, 142.25 35 M151 26.25 C152.67 34.1, 148.65 36.91, 142.25 35 M142.25 35 C102.51 36.84, 60.85 35.16, 8.75 35 M142.25 35 C97.52 36, 53.27 36.22, 8.75 35 M8.75 35 C1.23 33.34, -0.17 33.85, 0 26.25 M8.75 35 C2.69 33.82, -2.26 32.99, 0 26.25 M0 26.25 C1.61 20.05, 0.62 14.09, 0 8.75 M0 26.25 C-0.14 19.65, 0.95 12.4, 0 8.75 M0 8.75 C-1.55 4.6, 3.08 -0.89, 8.75 0 M0 8.75 C-2.23 1.89, 0.76 0.76, 8.75 0" stroke="#000000" stroke-width="1" fill="none"></path></g><g transform="translate(418 2337.875) rotate(0 49 12.5)"><text x="49" y="18" font-family="Virgil, Segoe UI Emoji" font-size="20px" fill="#000000" text-anchor="middle" style="white-space: pre;" direction="ltr">Productor</text></g><g stroke-linecap="round" transform="translate(551.5 2332.875) rotate(0 75.5 17.5)"><path d="M8.75 0 M8.75 0 C58.12 -0.31, 109.48 1.26, 142.25 0 M8.75 0 C38.54 0.04, 66.58 -0.44, 142.25 0 M142.25 0 C146.31 1.72, 150.31 3.27, 151 8.75 M142.25 0 C147.88 -0.77, 151.94 1.32, 151 8.75 M151 8.75 C150.58 15.64, 149.35 21.18, 151 26.25 M151 8.75 C150.61 12.72, 150.77 16.46, 151 26.25 M151 26.25 C149.34 33.15, 146.35 34.43, 142.25 35 M151 26.25 C149.83 32.28, 147.34 34.42, 142.25 35 M142.25 35 C94.5 33.41, 43.7 35.35, 8.75 35 M142.25 35 C108.58 35.82, 74.34 35.73, 8.75 35 M8.75 35 C2.44 35.69, -1.47 31.9, 0 26.25 M8.75 35 C0.65 33.85, -0.96 33.57, 0 26.25 M0 26.25 C0.02 20.57, -1.5 11.95, 0 8.75 M0 26.25 C-0.32 21.81, -0.29 16.66, 0 8.75 M0 8.75 C-1.65 3.41, 3.61 0.7, 8.75 0 M0 8.75 C0.48 3.52, 2.18 -1.84, 8.75 0" stroke="#000000" stroke-width="1" fill="none"></path></g><g transform="translate(405 2383.875) rotate(0 60 12.5)"><text x="60" y="18" font-family="Virgil, Segoe UI Emoji" font-size="20px" fill="#000000" text-anchor="middle" style="white-space: pre;" direction="ltr">Clasificaci칩n</text></g><g stroke-linecap="round" transform="translate(548.5 2378.875) rotate(0 75.5 17.5)"><path d="M8.75 0 M8.75 0 C56.84 -1.25, 106.56 -1.1, 142.25 0 M8.75 0 C56.07 1.34, 104.18 1.03, 142.25 0 M142.25 0 C149.78 -0.5, 149.06 3.33, 151 8.75 M142.25 0 C146.54 -1.93, 150.99 1.77, 151 8.75 M151 8.75 C152.6 15.15, 151.85 22.95, 151 26.25 M151 8.75 C150.85 14.51, 151.35 21.3, 151 26.25 M151 26.25 C149.63 33.9, 148.13 36.08, 142.25 35 M151 26.25 C150.47 32.81, 147.98 32.71, 142.25 35 M142.25 35 C97.41 35.18, 56.06 35.6, 8.75 35 M142.25 35 C106.46 35.23, 68.29 34.61, 8.75 35 M8.75 35 C0.94 35.31, 1.55 33.45, 0 26.25 M8.75 35 C3.88 35.2, 1.7 32.76, 0 26.25 M0 26.25 C-1.06 19.43, 0.37 15.55, 0 8.75 M0 26.25 C-0.42 21.68, -0.29 16.38, 0 8.75 M0 8.75 C0.04 1.93, 2.19 0.11, 8.75 0 M0 8.75 C-1.58 3.82, 3.96 -0.26, 8.75 0" stroke="#000000" stroke-width="1" fill="none"></path></g><g transform="translate(428.5 2435.875) rotate(0 42.5 12.5)"><text x="42.5" y="18" font-family="Virgil, Segoe UI Emoji" font-size="20px" fill="#000000" text-anchor="middle" style="white-space: pre;" direction="ltr">Duraci칩n</text></g><g stroke-linecap="round" transform="translate(549.5 2429.875) rotate(0 75.5 17.5)"><path d="M8.75 0 M8.75 0 C54.83 -0.69, 102.16 -1.47, 142.25 0 M8.75 0 C44.32 1.37, 78.99 -0.03, 142.25 0 M142.25 0 C147.96 1.31, 152.09 3.63, 151 8.75 M142.25 0 C147.61 -0.59, 151.98 4.94, 151 8.75 M151 8.75 C150.48 14.07, 150.38 16.21, 151 26.25 M151 8.75 C151.66 16.06, 151.8 22.47, 151 26.25 M151 26.25 C149.35 32.18, 149.7 36.11, 142.25 35 M151 26.25 C151.52 30.6, 148.68 34.1, 142.25 35 M142.25 35 C93.15 34.81, 43.68 35.02, 8.75 35 M142.25 35 C115.44 36.14, 87.58 35.15, 8.75 35 M8.75 35 C1.12 35.7, 1.89 30.76, 0 26.25 M8.75 35 C3.37 36.08, 0.19 32.59, 0 26.25 M0 26.25 C0.32 21.07, -1.62 14.07, 0 8.75 M0 26.25 C-0.19 19.35, 0.96 13.43, 0 8.75 M0 8.75 C0.22 3.8, 1.33 0.59, 8.75 0 M0 8.75 C-0.16 4.71, 0.99 2.13, 8.75 0" stroke="#000000" stroke-width="1" fill="none"></path></g><g transform="translate(440.5 2480.875) rotate(0 34.5 12.5)"><text x="34.5" y="18" font-family="Virgil, Segoe UI Emoji" font-size="20px" fill="#000000" text-anchor="middle" style="white-space: pre;" direction="ltr">G칠nero</text></g><g stroke-linecap="round" transform="translate(548.5 2477.875) rotate(0 75.5 17.5)"><path d="M8.75 0 M8.75 0 C53.81 2.06, 101.18 -0.77, 142.25 0 M8.75 0 C39.13 0.59, 71.23 1.02, 142.25 0 M142.25 0 C149.1 1.45, 150.07 4.31, 151 8.75 M142.25 0 C147.51 -1.69, 149.51 3.59, 151 8.75 M151 8.75 C152.3 13.58, 151.86 19.85, 151 26.25 M151 8.75 C150.85 14.58, 150.7 19.41, 151 26.25 M151 26.25 C149.56 33.6, 149.66 36.81, 142.25 35 M151 26.25 C148.95 30.97, 145.87 32.84, 142.25 35 M142.25 35 C105.35 36.71, 64.79 35.66, 8.75 35 M142.25 35 C104.02 36.48, 65.02 35.42, 8.75 35 M8.75 35 C2.67 34.69, -0.26 32.6, 0 26.25 M8.75 35 C3.6 36.73, 1.9 33.5, 0 26.25 M0 26.25 C1.49 20.56, -0.25 17.5, 0 8.75 M0 26.25 C-0.47 20.12, 0.34 14.42, 0 8.75 M0 8.75 C0.58 0.92, 1.22 -0.03, 8.75 0 M0 8.75 C0.33 2.5, 0.84 -0.42, 8.75 0" stroke="#000000" stroke-width="1" fill="none"></path></g><g transform="translate(678.5 2483.375) rotate(0 6.5 17)"><text x="6.5" y="21" font-family="Virgil, Segoe UI Emoji" font-size="20px" fill="#000000" text-anchor="middle" style="white-space: pre;" direction="ltr">拘勇</text></g><g stroke-linecap="round"><g transform="translate(576 2496.375) rotate(0 37.383206795528565 1.3912482243508748)"><path d="M0.8 0.99 C13.23 1.46, 61.8 1.93, 73.97 1.76" stroke="#000000" stroke-width="1.5" fill="none" stroke-dasharray="1.5 7"></path></g></g><g stroke-linecap="round" transform="translate(787.5 2232.875) rotate(0 103.5 146)"><path d="M51.75 0 M51.75 0 C77.7 1.72, 106.54 2.25, 155.25 0 M51.75 0 C91.24 0.58, 130.65 1.14, 155.25 0 M155.25 0 C189.4 -1.38, 206.64 15.83, 207 51.75 M155.25 0 C188.89 -1.72, 205.88 17.15, 207 51.75 M207 51.75 C207.14 112.12, 203.72 174.35, 207 240.25 M207 51.75 C204.64 117.78, 205.55 185.85, 207 240.25 M207 240.25 C206.28 274.3, 189.97 291.89, 155.25 292 M207 240.25 C208.19 272.8, 188.09 293.35, 155.25 292 M155.25 292 C114.26 291.22, 71.72 294.35, 51.75 292 M155.25 292 C128.17 293.61, 101.7 292.54, 51.75 292 M51.75 292 C19.18 290.46, 0.25 273.05, 0 240.25 M51.75 292 C19.43 289.95, -1.84 277, 0 240.25 M0 240.25 C-1.9 192.69, -1.01 147.91, 0 51.75 M0 240.25 C-1.9 183.68, -1.23 126.18, 0 51.75 M0 51.75 C1.29 16.1, 17.68 0.71, 51.75 0 M0 51.75 C-1.94 18.04, 19.13 -1.76, 51.75 0" stroke="#000000" stroke-width="1" fill="none"></path></g><g transform="translate(789.8656765316839 2345.3946049348306) rotate(313.02506598911805 107.1343234683161 31.980395065168977)"><text x="107.13432346831608" y="44.96079013033794" font-family="Virgil, Segoe UI Emoji" font-size="51.168632104270365px" fill="#000000" text-anchor="middle" style="white-space: pre;" direction="ltr">Portada</text></g><g stroke-linecap="round" transform="translate(457 2574.375) rotate(0 78.5 21)"><path d="M10.5 0 M10.5 0 C61.38 0, 112.27 0, 146.5 0 M10.5 0 C47.27 0, 84.03 0, 146.5 0 M146.5 0 C153.5 0, 157 3.5, 157 10.5 M146.5 0 C153.5 0, 157 3.5, 157 10.5 M157 10.5 C157 15.98, 157 21.46, 157 31.5 M157 10.5 C157 18.4, 157 26.3, 157 31.5 M157 31.5 C157 38.5, 153.5 42, 146.5 42 M157 31.5 C157 38.5, 153.5 42, 146.5 42 M146.5 42 C117.15 42, 87.79 42, 10.5 42 M146.5 42 C100.28 42, 54.06 42, 10.5 42 M10.5 42 C3.5 42, 0 38.5, 0 31.5 M10.5 42 C3.5 42, 0 38.5, 0 31.5 M0 31.5 C0 23.85, 0 16.21, 0 10.5 M0 31.5 C0 24.59, 0 17.67, 0 10.5 M0 10.5 C0 3.5, 3.5 0, 10.5 0 M0 10.5 C0 3.5, 3.5 0, 10.5 0" stroke="#000000" stroke-width="1" fill="none"></path></g><g transform="translate(462 2582.875) rotate(0 73.5 12.5)"><text x="73.5" y="18" font-family="Virgil, Segoe UI Emoji" font-size="20px" fill="#000000" text-anchor="middle" style="white-space: pre;" direction="ltr">Guardar</text></g><g stroke-linecap="round" transform="translate(657.5 2575.375) rotate(0 78.5 21)"><path d="M10.5 0 M10.5 0 C40.71 0, 70.92 0, 146.5 0 M10.5 0 C42.06 0, 73.62 0, 146.5 0 M146.5 0 C153.5 0, 157 3.5, 157 10.5 M146.5 0 C153.5 0, 157 3.5, 157 10.5 M157 10.5 C157 18.02, 157 25.53, 157 31.5 M157 10.5 C157 17.33, 157 24.15, 157 31.5 M157 31.5 C157 38.5, 153.5 42, 146.5 42 M157 31.5 C157 38.5, 153.5 42, 146.5 42 M146.5 42 C93.71 42, 40.92 42, 10.5 42 M146.5 42 C102.12 42, 57.74 42, 10.5 42 M10.5 42 C3.5 42, 0 38.5, 0 31.5 M10.5 42 C3.5 42, 0 38.5, 0 31.5 M0 31.5 C0 23.93, 0 16.35, 0 10.5 M0 31.5 C0 23.74, 0 15.98, 0 10.5 M0 10.5 C0 3.5, 3.5 0, 10.5 0 M0 10.5 C0 3.5, 3.5 0, 10.5 0" stroke="#000000" stroke-width="1" fill="none"></path></g><g transform="translate(662.5 2583.875) rotate(0 73.5 12.5)"><text x="73.5" y="18" font-family="Virgil, Segoe UI Emoji" font-size="20px" fill="#000000" text-anchor="middle" style="white-space: pre;" direction="ltr">Cancelar</text></g><g stroke-linecap="round" transform="translate(397 2737.875) rotate(0 486 286.5)"><path d="M0.18 0.49 C194.97 -3.53, 390.48 -3.78, 972.41 0.59 M-0.22 -0.08 C359.52 -2.07, 718.78 -1.91, 971.75 0.23 M972.54 -0.53 C973.83 210.8, 973.53 420.25, 972.67 572.53 M972.21 0.02 C970.43 215.34, 970.62 431.24, 971.9 572.85 M972 572.95 C607.57 572.83, 244.56 572.77, 0.36 572.6 M971.67 572.61 C594.17 570.49, 216.22 570.71, 0.39 572.78 M-0.18 572.73 C-1.33 429.88, -1.52 287.21, -0.72 0.65 M-0.29 573.21 C-1.07 454.67, -1.09 335.99, 0.26 0.28" stroke="#000000" stroke-width="2" fill="none"></path></g><g transform="translate(759 2703.875) rotate(0 112.5 12.5)"><text x="0" y="18" font-family="Virgil, Segoe UI Emoji" font-size="20px" fill="#000000" text-anchor="start" style="white-space: pre;" direction="ltr">P치gina de alta horario</text></g><g transform="translate(444.5 2831.375) rotate(0 137.5 22.5)"><text x="137.5" y="32" font-family="Virgil, Segoe UI Emoji" font-size="36px" fill="#000000" text-anchor="middle" style="white-space: pre;" direction="ltr">Alta de horario</text></g><g stroke-linecap="round"><g transform="translate(398 2805.375) rotate(0 485.00000000000006 -0.5)"><path d="M0 0 C161.67 -0.17, 808.33 -0.83, 970 -1 M0 0 C161.67 -0.17, 808.33 -0.83, 970 -1" stroke="#000000" stroke-width="1" fill="none"></path></g></g><g transform="translate(442.5 2908.375) rotate(0 38.5 12.5)"><text x="38.5" y="18" font-family="Virgil, Segoe UI Emoji" font-size="20px" fill="#000000" text-anchor="middle" style="white-space: pre;" direction="ltr">Pel칤cula</text></g><g transform="translate(450.5 2990.875) rotate(0 28.5 12.5)"><text x="28.5" y="18" font-family="Virgil, Segoe UI Emoji" font-size="20px" fill="#000000" text-anchor="middle" style="white-space: pre;" direction="ltr">Fecha</text></g><g transform="translate(453.5 2952.875) rotate(0 22.5 12.5)"><text x="22.5" y="18" font-family="Virgil, Segoe UI Emoji" font-size="20px" fill="#000000" text-anchor="middle" style="white-space: pre;" direction="ltr">Hora</text></g><g transform="translate(449.5 3033.875) rotate(0 22.5 12.5)"><text x="22.5" y="18" font-family="Virgil, Segoe UI Emoji" font-size="20px" fill="#000000" text-anchor="middle" style="white-space: pre;" direction="ltr">Sala</text></g><g transform="translate(559 3252.375) rotate(0 348 25)"><text x="348" y="18" font-family="Virgil, Segoe UI Emoji" font-size="20px" fill="#000000" text-anchor="middle" style="white-space: pre;" direction="ltr">*Recordar que el tiempo m칤nimo entre pel칤culas es de 30 minutos y el </text><text x="348" y="43" font-family="Virgil, Segoe UI Emoji" font-size="20px" fill="#000000" text-anchor="middle" style="white-space: pre;" direction="ltr">m치ximo de proyecciones por pel칤cula es 10</text></g><g stroke-linecap="round" transform="translate(553 2906.375) rotate(0 155.5 12.5)"><path d="M6.25 0 M6.25 0 C103.92 0, 201.59 0, 304.75 0 M6.25 0 C95.8 0, 185.36 0, 304.75 0 M304.75 0 C308.92 0, 311 2.08, 311 6.25 M304.75 0 C308.92 0, 311 2.08, 311 6.25 M311 6.25 C311 10.11, 311 13.97, 311 18.75 M311 6.25 C311 9.7, 311 13.14, 311 18.75 M311 18.75 C311 22.92, 308.92 25, 304.75 25 M311 18.75 C311 22.92, 308.92 25, 304.75 25 M304.75 25 C209.47 25, 114.19 25, 6.25 25 M304.75 25 C199.89 25, 95.03 25, 6.25 25 M6.25 25 C2.08 25, 0 22.92, 0 18.75 M6.25 25 C2.08 25, 0 22.92, 0 18.75 M0 18.75 C0 13.77, 0 8.79, 0 6.25 M0 18.75 C0 14.66, 0 10.57, 0 6.25 M0 6.25 C0 2.08, 2.08 0, 6.25 0 M0 6.25 C0 2.08, 2.08 0, 6.25 0" stroke="#000000" stroke-width="1" fill="none"></path></g><g stroke-linecap="round" transform="translate(555 2952.375) rotate(0 79.5 14)"><path d="M7 0 M7 0 C54.88 0, 102.77 0, 152 0 M7 0 C49.69 0, 92.38 0, 152 0 M152 0 C156.67 0, 159 2.33, 159 7 M152 0 C156.67 0, 159 2.33, 159 7 M159 7 C159 11.65, 159 16.29, 159 21 M159 7 C159 12.16, 159 17.32, 159 21 M159 21 C159 25.67, 156.67 28, 152 28 M159 21 C159 25.67, 156.67 28, 152 28 M152 28 C110.15 28, 68.3 28, 7 28 M152 28 C100.15 28, 48.31 28, 7 28 M7 28 C2.33 28, 0 25.67, 0 21 M7 28 C2.33 28, 0 25.67, 0 21 M0 21 C0 16.75, 0 12.49, 0 7 M0 21 C0 16.45, 0 11.9, 0 7 M0 7 C0 2.33, 2.33 0, 7 0 M0 7 C0 2.33, 2.33 0, 7 0" stroke="#000000" stroke-width="1" fill="none"></path></g><g stroke-linecap="round" transform="translate(554 2995.375) rotate(0 79 13.5)"><path d="M6.75 0 M6.75 0 C62.02 0, 117.29 0, 151.25 0 M6.75 0 C42.12 0, 77.49 0, 151.25 0 M151.25 0 C155.75 0, 158 2.25, 158 6.75 M151.25 0 C155.75 0, 158 2.25, 158 6.75 M158 6.75 C158 12.07, 158 17.39, 158 20.25 M158 6.75 C158 9.51, 158 12.27, 158 20.25 M158 20.25 C158 24.75, 155.75 27, 151.25 27 M158 20.25 C158 24.75, 155.75 27, 151.25 27 M151.25 27 C106.23 27, 61.2 27, 6.75 27 M151.25 27 C102.99 27, 54.73 27, 6.75 27 M6.75 27 C2.25 27, 0 24.75, 0 20.25 M6.75 27 C2.25 27, 0 24.75, 0 20.25 M0 20.25 C0 17.05, 0 13.85, 0 6.75 M0 20.25 C0 15.85, 0 11.44, 0 6.75 M0 6.75 C0 2.25, 2.25 0, 6.75 0 M0 6.75 C0 2.25, 2.25 0, 6.75 0" stroke="#000000" stroke-width="1" fill="none"></path></g><g stroke-linecap="round" transform="translate(553 3034.875) rotate(0 79 13.5)"><path d="M6.75 0 M6.75 0 C54.21 0, 101.68 0, 151.25 0 M6.75 0 C37.24 0, 67.73 0, 151.25 0 M151.25 0 C155.75 0, 158 2.25, 158 6.75 M151.25 0 C155.75 0, 158 2.25, 158 6.75 M158 6.75 C158 12.01, 158 17.27, 158 20.25 M158 6.75 C158 11.57, 158 16.38, 158 20.25 M158 20.25 C158 24.75, 155.75 27, 151.25 27 M158 20.25 C158 24.75, 155.75 27, 151.25 27 M151.25 27 C105.05 27, 58.85 27, 6.75 27 M151.25 27 C115.28 27, 79.31 27, 6.75 27 M6.75 27 C2.25 27, 0 24.75, 0 20.25 M6.75 27 C2.25 27, 0 24.75, 0 20.25 M0 20.25 C0 15.53, 0 10.8, 0 6.75 M0 20.25 C0 16.71, 0 13.17, 0 6.75 M0 6.75 C0 2.25, 2.25 0, 6.75 0 M0 6.75 C0 2.25, 2.25 0, 6.75 0" stroke="#000000" stroke-width="1" fill="none"></path></g><g stroke-linecap="round" transform="translate(453 3151.375) rotate(0 96.5 17)"><path d="M8.5 0 M8.5 0 C77.05 0, 145.59 0, 184.5 0 M8.5 0 C71.29 0, 134.09 0, 184.5 0 M184.5 0 C190.17 0, 193 2.83, 193 8.5 M184.5 0 C190.17 0, 193 2.83, 193 8.5 M193 8.5 C193 13.94, 193 19.37, 193 25.5 M193 8.5 C193 12.73, 193 16.96, 193 25.5 M193 25.5 C193 31.17, 190.17 34, 184.5 34 M193 25.5 C193 31.17, 190.17 34, 184.5 34 M184.5 34 C122.93 34, 61.35 34, 8.5 34 M184.5 34 C138.36 34, 92.22 34, 8.5 34 M8.5 34 C2.83 34, 0 31.17, 0 25.5 M8.5 34 C2.83 34, 0 31.17, 0 25.5 M0 25.5 C0 19.85, 0 14.21, 0 8.5 M0 25.5 C0 19.96, 0 14.42, 0 8.5 M0 8.5 C0 2.83, 2.83 0, 8.5 0 M0 8.5 C0 2.83, 2.83 0, 8.5 0" stroke="#000000" stroke-width="1" fill="none"></path></g><g transform="translate(463 3158.375) rotate(0 83 12.5)"><text x="83" y="18" font-family="Virgil, Segoe UI Emoji" font-size="20px" fill="#000000" text-anchor="middle" style="white-space: pre;" direction="ltr">Guardar cambios</text></g><g stroke-linecap="round" transform="translate(678.5 3151.375) rotate(0 60 16)"><path d="M8 0 M8 0 C35.86 0, 63.71 0, 112 0 M8 0 C49.17 0, 90.33 0, 112 0 M112 0 C117.33 0, 120 2.67, 120 8 M112 0 C117.33 0, 120 2.67, 120 8 M120 8 C120 12.3, 120 16.6, 120 24 M120 8 C120 13.78, 120 19.55, 120 24 M120 24 C120 29.33, 117.33 32, 112 32 M120 24 C120 29.33, 117.33 32, 112 32 M112 32 C89.28 32, 66.57 32, 8 32 M112 32 C71.16 32, 30.33 32, 8 32 M8 32 C2.67 32, 0 29.33, 0 24 M8 32 C2.67 32, 0 29.33, 0 24 M0 24 C0 17.97, 0 11.94, 0 8 M0 24 C0 18.55, 0 13.1, 0 8 M0 8 C0 2.67, 2.67 0, 8 0 M0 8 C0 2.67, 2.67 0, 8 0" stroke="#000000" stroke-width="1" fill="none"></path></g><g transform="translate(686 3157.375) rotate(0 52 12.5)"><text x="52" y="18" font-family="Virgil, Segoe UI Emoji" font-size="20px" fill="#000000" text-anchor="middle" style="white-space: pre;" direction="ltr">Descartar</text></g><g transform="translate(439.5 3082.375) rotate(0 47.5 12.5)"><text x="47.5" y="18" font-family="Virgil, Segoe UI Emoji" font-size="20px" fill="#000000" text-anchor="middle" style="white-space: pre;" direction="ltr">Horario(s)</text></g><g stroke-linecap="round" transform="translate(556 3079.375) rotate(0 155.5 14.5)"><path d="M7.25 0 M7.25 0 C100.29 0, 193.32 0, 303.75 0 M7.25 0 C79.85 0, 152.45 0, 303.75 0 M303.75 0 C308.58 0, 311 2.42, 311 7.25 M303.75 0 C308.58 0, 311 2.42, 311 7.25 M311 7.25 C311 10.34, 311 13.44, 311 21.75 M311 7.25 C311 11.9, 311 16.55, 311 21.75 M311 21.75 C311 26.58, 308.58 29, 303.75 29 M311 21.75 C311 26.58, 308.58 29, 303.75 29 M303.75 29 C203.64 29, 103.54 29, 7.25 29 M303.75 29 C222.62 29, 141.49 29, 7.25 29 M7.25 29 C2.42 29, 0 26.58, 0 21.75 M7.25 29 C2.42 29, 0 26.58, 0 21.75 M0 21.75 C0 18.75, 0 15.76, 0 7.25 M0 21.75 C0 18.79, 0 15.82, 0 7.25 M0 7.25 C0 2.42, 2.42 0, 7.25 0 M0 7.25 C0 2.42, 2.42 0, 7.25 0" stroke="#000000" stroke-width="1" fill="none"></path></g><g stroke-linecap="round" transform="translate(398 3391.875) rotate(0 486 286.5)"><path d="M-0.43 0.05 C289.68 1.37, 580.72 1.39, 972.73 -0.08 M-0.26 0.32 C330.36 0.75, 661.77 0.86, 972.13 -0.04 M972.63 -0.02 C972.52 185.99, 971.89 370.19, 971.87 572.21 M971.87 -0.14 C972.08 154.83, 972.56 309.35, 971.7 572.71 M972.37 573.56 C763.09 574.56, 553.96 574.03, 0.05 572.21 M971.77 573.01 C684.39 571.98, 396.47 572.19, -0.2 573.12 M0.55 573.65 C1.12 344.43, 0.84 115.04, 0.8 0.43 M0.25 572.76 C-2.2 447.62, -2.06 321.46, -0.33 0.14" stroke="#000000" stroke-width="2" fill="none"></path></g><g transform="translate(760 3357.875) rotate(0 115.5 12.5)"><text x="0" y="18" font-family="Virgil, Segoe UI Emoji" font-size="20px" fill="#000000" text-anchor="start" style="white-space: pre;" direction="ltr">P치gina de baja pel칤cula</text></g><g transform="translate(441 3484.375) rotate(0 142 22.5)"><text x="142" y="32" font-family="Virgil, Segoe UI Emoji" font-size="36px" fill="#000000" text-anchor="middle" style="white-space: pre;" direction="ltr">Baja de horario</text></g><g stroke-linecap="round"><g transform="translate(399 3459.375) rotate(0 485.00000000000006 -0.5)"><path d="M0 0 C161.67 -0.17, 808.33 -0.83, 970 -1 M0 0 C161.67 -0.17, 808.33 -0.83, 970 -1" stroke="#000000" stroke-width="1" fill="none"></path></g></g><g transform="translate(443.5 3562.375) rotate(0 38.5 12.5)"><text x="38.5" y="18" font-family="Virgil, Segoe UI Emoji" font-size="20px" fill="#000000" text-anchor="middle" style="white-space: pre;" direction="ltr">Pel칤cula</text></g><g stroke-linecap="round" transform="translate(554 3560.375) rotate(0 155.5 12.5)"><path d="M6.25 0 M6.25 0 C122.89 0, 239.53 0, 304.75 0 M6.25 0 C71.35 0, 136.45 0, 304.75 0 M304.75 0 C308.92 0, 311 2.08, 311 6.25 M304.75 0 C308.92 0, 311 2.08, 311 6.25 M311 6.25 C311 9.8, 311 13.36, 311 18.75 M311 6.25 C311 8.84, 311 11.43, 311 18.75 M311 18.75 C311 22.92, 308.92 25, 304.75 25 M311 18.75 C311 22.92, 308.92 25, 304.75 25 M304.75 25 C213.2 25, 121.66 25, 6.25 25 M304.75 25 C207.21 25, 109.67 25, 6.25 25 M6.25 25 C2.08 25, 0 22.92, 0 18.75 M6.25 25 C2.08 25, 0 22.92, 0 18.75 M0 18.75 C0 13.75, 0 8.75, 0 6.25 M0 18.75 C0 14.92, 0 11.1, 0 6.25 M0 6.25 C0 2.08, 2.08 0, 6.25 0 M0 6.25 C0 2.08, 2.08 0, 6.25 0" stroke="#000000" stroke-width="1" fill="none"></path></g><g stroke-linecap="round" transform="translate(449 3632.375) rotate(0 96.5 17)"><path d="M8.5 0 M8.5 0 C56.39 0, 104.28 0, 184.5 0 M8.5 0 C67.16 0, 125.82 0, 184.5 0 M184.5 0 C190.17 0, 193 2.83, 193 8.5 M184.5 0 C190.17 0, 193 2.83, 193 8.5 M193 8.5 C193 13.83, 193 19.15, 193 25.5 M193 8.5 C193 12.31, 193 16.13, 193 25.5 M193 25.5 C193 31.17, 190.17 34, 184.5 34 M193 25.5 C193 31.17, 190.17 34, 184.5 34 M184.5 34 C134.78 34, 85.07 34, 8.5 34 M184.5 34 C140.69 34, 96.87 34, 8.5 34 M8.5 34 C2.83 34, 0 31.17, 0 25.5 M8.5 34 C2.83 34, 0 31.17, 0 25.5 M0 25.5 C0 19.56, 0 13.62, 0 8.5 M0 25.5 C0 21.8, 0 18.09, 0 8.5 M0 8.5 C0 2.83, 2.83 0, 8.5 0 M0 8.5 C0 2.83, 2.83 0, 8.5 0" stroke="#000000" stroke-width="1" fill="none"></path></g><g transform="translate(459 3639.375) rotate(0 83 12.5)"><text x="83" y="18" font-family="Virgil, Segoe UI Emoji" font-size="20px" fill="#000000" text-anchor="middle" style="white-space: pre;" direction="ltr">Guardar cambios</text></g><g stroke-linecap="round" transform="translate(674.5 3632.375) rotate(0 60 16)"><path d="M8 0 M8 0 C47.58 0, 87.15 0, 112 0 M8 0 C41.62 0, 75.24 0, 112 0 M112 0 C117.33 0, 120 2.67, 120 8 M112 0 C117.33 0, 120 2.67, 120 8 M120 8 C120 12.23, 120 16.47, 120 24 M120 8 C120 11.44, 120 14.88, 120 24 M120 24 C120 29.33, 117.33 32, 112 32 M120 24 C120 29.33, 117.33 32, 112 32 M112 32 C80.61 32, 49.23 32, 8 32 M112 32 C70.42 32, 28.84 32, 8 32 M8 32 C2.67 32, 0 29.33, 0 24 M8 32 C2.67 32, 0 29.33, 0 24 M0 24 C0 20.17, 0 16.34, 0 8 M0 24 C0 20.15, 0 16.3, 0 8 M0 8 C0 2.67, 2.67 0, 8 0 M0 8 C0 2.67, 2.67 0, 8 0" stroke="#000000" stroke-width="1" fill="none"></path></g><g transform="translate(682 3638.375) rotate(0 52 12.5)"><text x="52" y="18" font-family="Virgil, Segoe UI Emoji" font-size="20px" fill="#000000" text-anchor="middle" style="white-space: pre;" direction="ltr">Descartar</text></g><g transform="translate(836.5 3556.375) rotate(0 6.5 17)"><text x="6.5" y="21" font-family="Virgil, Segoe UI Emoji" font-size="20px" fill="#000000" text-anchor="middle" style="white-space: pre;" direction="ltr">拘勇</text></g><g stroke-linecap="round" transform="translate(398 4042.875) rotate(0 486 286.5)"><path d="M-0.64 -0.21 C310.32 3.49, 619.56 2.93, 971.37 -0.44 M0.13 -0.23 C307.27 0.95, 614.74 1.26, 971.78 -0.08 M972.76 -0.18 C973.35 204.74, 974.25 410.51, 972.29 573.16 M972.29 0.23 C973.19 203.25, 973.18 406.98, 972.18 573.35 M971.93 573.24 C708.67 576.73, 443.59 575.44, -0.44 573.44 M971.8 573.13 C764 569.67, 556.81 569.33, 0.2 573.02 M-0.69 573.33 C2.73 346.89, 1.46 122.41, 0.13 -0.4 M-0.28 572.88 C-1.02 401.83, -1 230.51, -0.19 -0.28" stroke="#000000" stroke-width="2" fill="none"></path></g><g transform="translate(760 4008.875) rotate(0 136.5 12.5)"><text x="0" y="18" font-family="Virgil, Segoe UI Emoji" font-size="20px" fill="#000000" text-anchor="start" style="white-space: pre;" direction="ltr">P치gina de modificar pel칤cula</text></g><g transform="translate(440 4137.375) rotate(0 154 22.5)"><text x="154" y="32" font-family="Virgil, Segoe UI Emoji" font-size="36px" fill="#000000" text-anchor="middle" style="white-space: pre;" direction="ltr">Modificar pel칤cula</text></g><g stroke-linecap="round"><g transform="translate(399 4110.375) rotate(0 485.00000000000006 -0.5)"><path d="M0 0 C161.67 -0.17, 808.33 -0.83, 970 -1 M0 0 C161.67 -0.17, 808.33 -0.83, 970 -1" stroke="#000000" stroke-width="1" fill="none"></path></g></g><g stroke-linecap="round" transform="translate(572.75 4197.625) rotate(0 75.5 17.5)"><path d="M8.75 0 M8.75 0 C57.02 -2.99, 102.97 -0.67, 142.25 0 M8.75 0 C40.51 1.37, 72.07 -0.29, 142.25 0 M142.25 0 C148.22 0.01, 150.14 2.72, 151 8.75 M142.25 0 C149.87 -2.13, 152.2 1.3, 151 8.75 M151 8.75 C152.02 14.73, 151.9 18.35, 151 26.25 M151 8.75 C151.7 12.41, 151.15 15.87, 151 26.25 M151 26.25 C152.84 33.78, 148.63 36.38, 142.25 35 M151 26.25 C152.9 33.72, 148.47 36.06, 142.25 35 M142.25 35 C101.13 36.4, 64.81 35.07, 8.75 35 M142.25 35 C107.73 36.57, 71.69 35.27, 8.75 35 M8.75 35 C3.33 34.42, 1.86 33.77, 0 26.25 M8.75 35 C4.75 35.25, -1.4 30.08, 0 26.25 M0 26.25 C-1.61 24.38, -0.13 17.77, 0 8.75 M0 26.25 C-0.32 19.83, 0.08 14.54, 0 8.75 M0 8.75 C-1.9 2.46, 2.44 -0.79, 8.75 0 M0 8.75 C1.01 4.47, 4.9 -0.13, 8.75 0" stroke="#000000" stroke-width="1" fill="none"></path></g><g transform="translate(446.25 4200.625) rotate(0 33.5 12.5)"><text x="33.5" y="18" font-family="Virgil, Segoe UI Emoji" font-size="20px" fill="#000000" text-anchor="middle" style="white-space: pre;" direction="ltr">Nombre</text></g><g transform="translate(444.75 4250.625) rotate(0 41 12.5)"><text x="41" y="18" font-family="Virgil, Segoe UI Emoji" font-size="20px" fill="#000000" text-anchor="middle" style="white-space: pre;" direction="ltr">Director</text></g><g stroke-linecap="round" transform="translate(574.25 4248.125) rotate(0 75.5 17.5)"><path d="M8.75 0 M8.75 0 C35.86 -2.09, 64.9 -0.3, 142.25 0 M8.75 0 C62.01 0.9, 114.7 0.79, 142.25 0 M142.25 0 C149.63 -1.85, 152.05 1.51, 151 8.75 M142.25 0 C148.23 -1.02, 151.04 4.36, 151 8.75 M151 8.75 C149.77 13.92, 150.94 22.04, 151 26.25 M151 8.75 C151.85 14.23, 151.28 18.83, 151 26.25 M151 26.25 C152.65 33.5, 148.42 35.92, 142.25 35 M151 26.25 C150.93 31.1, 147.92 33.33, 142.25 35 M142.25 35 C91.53 34.21, 43.44 36.42, 8.75 35 M142.25 35 C91.88 34.02, 42.04 35.15, 8.75 35 M8.75 35 C4.51 35.22, -1.22 30.34, 0 26.25 M8.75 35 C0.64 33.7, -0.82 29.84, 0 26.25 M0 26.25 C0.82 17.96, -1.17 11.53, 0 8.75 M0 26.25 C-0.82 21.55, -0.19 16.9, 0 8.75 M0 8.75 C0.88 4.27, 4.64 -0.11, 8.75 0 M0 8.75 C-1.88 0.95, 2.69 0.69, 8.75 0" stroke="#000000" stroke-width="1" fill="none"></path></g><g transform="translate(439.75 4300.125) rotate(0 49 12.5)"><text x="49" y="18" font-family="Virgil, Segoe UI Emoji" font-size="20px" fill="#000000" text-anchor="middle" style="white-space: pre;" direction="ltr">Productor</text></g><g stroke-linecap="round" transform="translate(573.25 4295.125) rotate(0 75.5 17.5)"><path d="M8.75 0 M8.75 0 C40.55 2.35, 71.94 -0.96, 142.25 0 M8.75 0 C49.64 1.35, 89.8 1.1, 142.25 0 M142.25 0 C146.67 0.12, 150.12 2.95, 151 8.75 M142.25 0 C149.52 0.82, 152.28 1.45, 151 8.75 M151 8.75 C152.48 12.16, 151.37 15.16, 151 26.25 M151 8.75 C151.75 16.33, 151.77 22.61, 151 26.25 M151 26.25 C151.92 32.03, 147.22 34.86, 142.25 35 M151 26.25 C149.33 33.8, 150.26 35.19, 142.25 35 M142.25 35 C108.38 37.36, 71.49 34.75, 8.75 35 M142.25 35 C100.29 37.04, 56.75 35.63, 8.75 35 M8.75 35 C1.17 33.02, -1.13 31.37, 0 26.25 M8.75 35 C0.67 37.16, -0.31 30.18, 0 26.25 M0 26.25 C-0.79 19.46, 0.02 14.93, 0 8.75 M0 26.25 C-0.3 23.05, 0.63 19.82, 0 8.75 M0 8.75 C-0.11 1.28, 1.2 -0.2, 8.75 0 M0 8.75 C0.69 4.83, 3.54 -2.14, 8.75 0" stroke="#000000" stroke-width="1" fill="none"></path></g><g stroke-linecap="round" transform="translate(570.25 4341.125) rotate(0 75.5 17.5)"><path d="M8.75 0 M8.75 0 C39.3 -0.31, 64.58 0.09, 142.25 0 M8.75 0 C49.65 -0.79, 89.53 -0.57, 142.25 0 M142.25 0 C148.21 -0.88, 151.03 4.17, 151 8.75 M142.25 0 C148.9 1.28, 149.53 1.17, 151 8.75 M151 8.75 C150.47 13.74, 149.56 19.46, 151 26.25 M151 8.75 C151.77 16.11, 151.2 22.63, 151 26.25 M151 26.25 C150.94 31.22, 147.94 33.55, 142.25 35 M151 26.25 C152.71 34.26, 148.27 34.16, 142.25 35 M142.25 35 C109.81 35.47, 73.18 36.29, 8.75 35 M142.25 35 C106.87 36.24, 69.3 35.25, 8.75 35 M8.75 35 C0.93 33.87, -0.71 30.13, 0 26.25 M8.75 35 C5.08 34.69, -1.9 33.13, 0 26.25 M0 26.25 C-0.63 22.27, 0.88 16.87, 0 8.75 M0 26.25 C0.43 21.99, 0.8 16.5, 0 8.75 M0 8.75 C-1.64 1.2, 2.72 0.6, 8.75 0 M0 8.75 C1.91 3.54, 0.78 0.61, 8.75 0" stroke="#000000" stroke-width="1" fill="none"></path></g><g transform="translate(450.25 4398.125) rotate(0 42.5 12.5)"><text x="42.5" y="18" font-family="Virgil, Segoe UI Emoji" font-size="20px" fill="#000000" text-anchor="middle" style="white-space: pre;" direction="ltr">Duraci칩n</text></g><g stroke-linecap="round" transform="translate(571.25 4392.125) rotate(0 75.5 17.5)"><path d="M8.75 0 M8.75 0 C47.96 0.31, 89.86 -0.68, 142.25 0 M8.75 0 C47.98 0.53, 86.24 0.79, 142.25 0 M142.25 0 C148.12 1.25, 151.71 4.03, 151 8.75 M142.25 0 C146.62 -1.75, 150.08 2.71, 151 8.75 M151 8.75 C149.53 17.15, 152.44 22.82, 151 26.25 M151 8.75 C151.29 15.61, 151.12 21.29, 151 26.25 M151 26.25 C150.86 30.63, 149.57 36.89, 142.25 35 M151 26.25 C151.19 31.24, 147.04 36.35, 142.25 35 M142.25 35 C92.39 35.14, 44.03 36.59, 8.75 35 M142.25 35 C90.33 34.28, 38.64 34.58, 8.75 35 M8.75 35 C2.2 33.05, 1.88 31.82, 0 26.25 M8.75 35 C1.01 36.04, -1.83 30.51, 0 26.25 M0 26.25 C0.84 20.27, -0.33 17.19, 0 8.75 M0 26.25 C0.68 21.64, -0.79 16.38, 0 8.75 M0 8.75 C-0.2 3.52, 4.58 0.54, 8.75 0 M0 8.75 C-2.14 3.53, 2.84 0.89, 8.75 0" stroke="#000000" stroke-width="1" fill="none"></path></g><g transform="translate(462.25 4443.125) rotate(0 34.5 12.5)"><text x="34.5" y="18" font-family="Virgil, Segoe UI Emoji" font-size="20px" fill="#000000" text-anchor="middle" style="white-space: pre;" direction="ltr">G칠nero</text></g><g stroke-linecap="round" transform="translate(570.25 4440.125) rotate(0 75.5 17.5)"><path d="M8.75 0 M8.75 0 C47.07 -0.95, 85.17 1.46, 142.25 0 M8.75 0 C36.51 0.5, 64.16 1.57, 142.25 0 M142.25 0 C148.8 1.12, 149.73 1.39, 151 8.75 M142.25 0 C147.16 -0.21, 153.03 2.25, 151 8.75 M151 8.75 C152.35 14.92, 152.07 21.56, 151 26.25 M151 8.75 C151 14.87, 150.97 21.1, 151 26.25 M151 26.25 C152.49 33.98, 148.25 34.27, 142.25 35 M151 26.25 C149.96 33.44, 149.59 36.81, 142.25 35 M142.25 35 C104.31 37.13, 69.22 36.87, 8.75 35 M142.25 35 C99.74 33.27, 58.85 32.86, 8.75 35 M8.75 35 C4.8 34.73, -1.66 32.99, 0 26.25 M8.75 35 C1.09 33.43, -1.22 31.1, 0 26.25 M0 26.25 C-0.48 20.71, -0.77 16.76, 0 8.75 M0 26.25 C-0.87 19.07, -0.24 13.65, 0 8.75 M0 8.75 C1.66 3.46, 1.06 0.53, 8.75 0 M0 8.75 C-0.08 3.81, 0.8 -1.94, 8.75 0" stroke="#000000" stroke-width="1" fill="none"></path></g><g transform="translate(700.25 4445.625) rotate(0 6.5 17)"><text x="6.5" y="21" font-family="Virgil, Segoe UI Emoji" font-size="20px" fill="#000000" text-anchor="middle" style="white-space: pre;" direction="ltr">拘勇</text></g><g stroke-linecap="round"><g transform="translate(597.75 4458.625) rotate(0 36.70776417963202 -0.12501728944471324)"><path d="M-0.51 -0.12 C11.79 -0.14, 61.57 -0.16, 73.93 -0.11" stroke="#000000" stroke-width="1.5" fill="none" stroke-dasharray="1.5 7"></path></g></g><g stroke-linecap="round" transform="translate(809.25 4195.125) rotate(0 103.5 146)"><path d="M51.75 0 M51.75 0 C84.41 -1.75, 115.02 -1.31, 155.25 0 M51.75 0 C84.07 0.34, 115.69 -0.65, 155.25 0 M155.25 0 C188.23 -0.8, 206.82 19.02, 207 51.75 M155.25 0 C189.08 0.57, 205.13 19.36, 207 51.75 M207 51.75 C209.17 125.75, 207.86 197.84, 207 240.25 M207 51.75 C205.46 108.5, 207.14 163.84, 207 240.25 M207 240.25 C206.27 273.85, 190.93 293.31, 155.25 292 M207 240.25 C208.81 274.29, 188.56 292.47, 155.25 292 M155.25 292 C128.8 293.09, 97.94 291.13, 51.75 292 M155.25 292 C133.48 292.57, 113.53 290.8, 51.75 292 M51.75 292 C18.16 290.41, -1.36 273.69, 0 240.25 M51.75 292 C16.27 291.84, 1 272.57, 0 240.25 M0 240.25 C1.33 189.38, 2.17 135.69, 0 51.75 M0 240.25 C1.92 199.96, 1.89 157.08, 0 51.75 M0 51.75 C0.53 17.18, 18.03 -1.84, 51.75 0 M0 51.75 C-1.94 15.35, 17.37 0.35, 51.75 0" stroke="#000000" stroke-width="1" fill="none"></path></g><g transform="translate(811.6156765316839 4307.644604934831) rotate(313.02506598911805 107.1343234683161 31.980395065168977)"><text x="107.13432346831608" y="44.96079013033794" font-family="Virgil, Segoe UI Emoji" font-size="51.168632104270365px" fill="#000000" text-anchor="middle" style="white-space: pre;" direction="ltr">Portada</text></g><g stroke-linecap="round" transform="translate(478.75 4536.625) rotate(0 78.5 21)"><path d="M10.5 0 M10.5 0 C49.94 0, 89.37 0, 146.5 0 M10.5 0 C51.53 0, 92.57 0, 146.5 0 M146.5 0 C153.5 0, 157 3.5, 157 10.5 M146.5 0 C153.5 0, 157 3.5, 157 10.5 M157 10.5 C157 18.25, 157 26, 157 31.5 M157 10.5 C157 16.65, 157 22.81, 157 31.5 M157 31.5 C157 38.5, 153.5 42, 146.5 42 M157 31.5 C157 38.5, 153.5 42, 146.5 42 M146.5 42 C94.23 42, 41.96 42, 10.5 42 M146.5 42 C110.54 42, 74.59 42, 10.5 42 M10.5 42 C3.5 42, 0 38.5, 0 31.5 M10.5 42 C3.5 42, 0 38.5, 0 31.5 M0 31.5 C0 26.03, 0 20.56, 0 10.5 M0 31.5 C0 25.41, 0 19.32, 0 10.5 M0 10.5 C0 3.5, 3.5 0, 10.5 0 M0 10.5 C0 3.5, 3.5 0, 10.5 0" stroke="#000000" stroke-width="1" fill="none"></path></g><g transform="translate(483.75 4545.125) rotate(0 73.5 12.5)"><text x="73.5" y="18" font-family="Virgil, Segoe UI Emoji" font-size="20px" fill="#000000" text-anchor="middle" style="white-space: pre;" direction="ltr">Guardar</text></g><g stroke-linecap="round" transform="translate(679.25 4537.625) rotate(0 78.5 21)"><path d="M10.5 0 M10.5 0 C38.72 0, 66.93 0, 146.5 0 M10.5 0 C56.15 0, 101.8 0, 146.5 0 M146.5 0 C153.5 0, 157 3.5, 157 10.5 M146.5 0 C153.5 0, 157 3.5, 157 10.5 M157 10.5 C157 18.29, 157 26.08, 157 31.5 M157 10.5 C157 18.36, 157 26.23, 157 31.5 M157 31.5 C157 38.5, 153.5 42, 146.5 42 M157 31.5 C157 38.5, 153.5 42, 146.5 42 M146.5 42 C104.2 42, 61.9 42, 10.5 42 M146.5 42 C92.9 42, 39.31 42, 10.5 42 M10.5 42 C3.5 42, 0 38.5, 0 31.5 M10.5 42 C3.5 42, 0 38.5, 0 31.5 M0 31.5 C0 23.78, 0 16.07, 0 10.5 M0 31.5 C0 23.45, 0 15.41, 0 10.5 M0 10.5 C0 3.5, 3.5 0, 10.5 0 M0 10.5 C0 3.5, 3.5 0, 10.5 0" stroke="#000000" stroke-width="1" fill="none"></path></g><g transform="translate(684.25 4546.125) rotate(0 73.5 12.5)"><text x="73.5" y="18" font-family="Virgil, Segoe UI Emoji" font-size="20px" fill="#000000" text-anchor="middle" style="white-space: pre;" direction="ltr">Cancelar</text></g><g transform="translate(1391 1605.375) rotate(0 175 37.5)"><text x="175" y="18" font-family="Virgil, Segoe UI Emoji" font-size="20px" fill="#000000" text-anchor="middle" style="white-space: pre;" direction="ltr">Tabla con todos los horarios de la</text><text x="175" y="43" font-family="Virgil, Segoe UI Emoji" font-size="20px" fill="#000000" text-anchor="middle" style="white-space: pre;" direction="ltr">sucursal seleccionada para una </text><text x="175" y="68" font-family="Virgil, Segoe UI Emoji" font-size="20px" fill="#000000" text-anchor="middle" style="white-space: pre;" direction="ltr">pel칤cula en espec칤fico</text></g><g stroke-linecap="round"><g transform="translate(1388 1622.375) rotate(0 -184 -32)"><path d="M0 0 C-61.33 -10.67, -306.67 -53.33, -368 -64 M0 0 C-61.33 -10.67, -306.67 -53.33, -368 -64" stroke="#000000" stroke-width="1" fill="none"></path></g><g transform="translate(1388 1622.375) rotate(0 -184 -32)"><path d="M-338.47 -69.28 C-344.82 -68.14, -351.17 -67.01, -368 -64 M-338.47 -69.28 C-348.61 -67.47, -358.75 -65.65, -368 -64" stroke="#000000" stroke-width="1" fill="none"></path></g><g transform="translate(1388 1622.375) rotate(0 -184 -32)"><path d="M-341.98 -49.06 C-347.58 -52.27, -353.18 -55.49, -368 -64 M-341.98 -49.06 C-350.92 -54.19, -359.85 -59.32, -368 -64" stroke="#000000" stroke-width="1" fill="none"></path></g></g></svg>